<svg width="128" height="140" viewBox="0 0 128 140" fill="none" xmlns="http://www.w3.org/2000/svg">
<g filter="url(#filter0_d_1_1733)">
<path d="M121.54 23.573C116.538 13.9947 116.559 4.90762 121.417 -4.70486C128.041 -17.8158 124.125 -31.5154 111.791 -39.498C103.506 -44.8607 98.967 -52.0066 98.4528 -62.1289C97.6939 -77.0794 88.025 -87.5362 73.6204 -88.5356C62.4294 -89.3116 54.4426 -93.9805 48.2293 -103.26C40.2835 -115.126 26.7372 -118.14 14.0257 -111.54C4.84534 -106.775 -4.11169 -106.822 -13.2656 -111.659C-19.1212 -114.754 -26.3551 -116.186 -32.9336 -113.873C-38.0663 -112.14 -38.8997 -111.182 -40.5287 -110.297C-44.0536 -108.53 -46.3252 -105.471 -48.3512 -102.298C-53.7808 -93.7931 -61.3415 -89.4219 -71.4964 -88.6613C-86.7335 -87.52 -97.2289 -77.9178 -97.5822 -64.2465C-97.8774 -52.8493 -102.83 -44.9514 -112.004 -38.7433C-123.697 -30.83 -127.107 -17.7781 -120.818 -5.0668C-116.069 4.53287 -115.951 13.6149 -120.793 23.2812C-127.356 36.3802 -123.642 49.7152 -111.518 57.7619C-102.763 63.5722 -98.176 71.2733 -97.6396 81.9005C-96.9158 96.2271 -86.4913 106.635 -72.4401 107.223C-61.8626 107.665 -54.1179 112.037 -48.2674 120.908C-39.8023 133.747 -26.5759 137.02 -12.9961 130.01C-3.98254 125.356 4.78375 125.279 13.7861 129.984C27.0717 136.927 40.8679 133.381 49.0618 120.724C53.0728 114.528 58.2405 110.081 65.2802 108.166C68.7076 107.233 72.4114 107.357 75.9724 106.869C87.373 105.308 97.1138 95.9251 97.7529 84.7847C98.4537 72.5841 103.114 63.4576 113.543 56.4864C124.986 48.8365 127.855 35.6692 121.54 23.573Z" fill="#FFE249"/>
</g>
<defs>
<filter id="filter0_d_1_1733" x="-127" y="-115.015" width="254.822" height="254.638" filterUnits="userSpaceOnUse" color-interpolation-filters="sRGB">
<feFlood flood-opacity="0" result="BackgroundImageFix"/>
<feColorMatrix in="SourceAlpha" type="matrix" values="0 0 0 0 0 0 0 0 0 0 0 0 0 0 0 0 0 0 127 0" result="hardAlpha"/>
<feOffset dy="3"/>
<feGaussianBlur stdDeviation="1.5"/>
<feComposite in2="hardAlpha" operator="out"/>
<feColorMatrix type="matrix" values="0 0 0 0 0 0 0 0 0 0 0 0 0 0 0 0 0 0 0.160784 0"/>
<feBlend mode="normal" in2="BackgroundImageFix" result="effect1_dropShadow_1_1733"/>
<feBlend mode="normal" in="SourceGraphic" in2="effect1_dropShadow_1_1733" result="shape"/>
</filter>
</defs>
</svg>
