<svg width="111" height="111" viewBox="0 0 111 111" fill="none" xmlns="http://www.w3.org/2000/svg">
<g filter="url(#filter0_d_1_3)">
<path d="M106.498 58.4167C104.39 54.3794 104.399 50.5491 106.446 46.4973C109.239 40.9709 107.588 35.1963 102.389 31.8316C98.8966 29.5711 96.9834 26.559 96.7667 22.2923C96.4468 15.9905 92.3712 11.5828 86.2995 11.1616C81.5823 10.8345 78.2158 8.86647 75.5968 4.955C72.2476 -0.0467105 66.5376 -1.31687 61.1796 1.46473C57.3099 3.47349 53.5344 3.45366 49.676 1.41461C47.2077 0.11018 44.1586 -0.493534 41.3856 0.48164C39.2221 1.21193 38.8709 1.61584 38.1842 1.98875C36.6984 2.73382 35.7409 4.0231 34.8869 5.36071C32.5983 8.94546 29.4113 10.788 25.1309 11.1086C18.7083 11.5897 14.2844 15.6371 14.1354 21.3997C14.011 26.2038 11.9233 29.5328 8.05649 32.1496C3.12764 35.4852 1.69014 40.9867 4.34121 46.3447C6.3431 50.3911 6.39287 54.2193 4.35166 58.2938C1.58556 63.8151 3.15074 69.4361 8.26134 72.8278C11.9517 75.2769 13.8851 78.5231 14.1113 83.0025C14.4164 89.0414 18.8104 93.4286 24.7331 93.6763C29.1917 93.8628 32.4562 95.7053 34.9222 99.4447C38.4904 104.856 44.0655 106.236 49.7896 103.281C53.5889 101.32 57.284 101.287 61.0786 103.27C66.6786 106.197 72.4939 104.702 75.9477 99.3672C77.6384 96.7555 79.8167 94.8809 82.784 94.0738C84.2287 93.6806 85.7899 93.7326 87.2909 93.527C92.0964 92.8692 96.2023 88.9141 96.4716 84.2182C96.767 79.0755 98.7314 75.2286 103.127 72.2901C107.951 69.0657 109.16 63.5154 106.498 58.4167Z" fill="white"/>
</g>
<path d="M65.6034 42.424V35.022H54.5498H45.3333V42.424V49.143V56.545V69.4127H54.5498V56.545H64.8062V49.143H54.5498V42.424H65.6034Z" fill="#1A1818"/>
<defs>
<filter id="filter0_d_1_3" x="0" y="0" width="110.882" height="110.804" filterUnits="userSpaceOnUse" color-interpolation-filters="sRGB">
<feFlood flood-opacity="0" result="BackgroundImageFix"/>
<feColorMatrix in="SourceAlpha" type="matrix" values="0 0 0 0 0 0 0 0 0 0 0 0 0 0 0 0 0 0 127 0" result="hardAlpha"/>
<feOffset dy="3"/>
<feGaussianBlur stdDeviation="1.5"/>
<feComposite in2="hardAlpha" operator="out"/>
<feColorMatrix type="matrix" values="0 0 0 0 0 0 0 0 0 0 0 0 0 0 0 0 0 0 0.160784 0"/>
<feBlend mode="normal" in2="BackgroundImageFix" result="effect1_dropShadow_1_3"/>
<feBlend mode="normal" in="SourceGraphic" in2="effect1_dropShadow_1_3" result="shape"/>
</filter>
</defs>
</svg>
