<svg width="36" height="36" viewBox="0 0 36 36" fill="none" xmlns="http://www.w3.org/2000/svg">
<path d="M12.5999 14.4C12.5999 11.0862 9.91364 8.40002 6.59989 8.40002C3.28614 8.40002 0.599854 11.0862 0.599854 14.4C0.599854 16.6194 1.80824 18.5526 3.59987 19.5906V18.009C3.59987 17.3412 4.16385 16.8 4.85924 16.8H8.3404C9.03579 16.8 9.59977 17.3412 9.59977 18.009V19.5894C11.392 18.5532 12.5999 16.6194 12.5999 14.4Z" fill="#FFE249"/>
<circle cx="33.5998" cy="9.59995" r="1.8" fill="white"/>
<circle cx="2.39985" cy="29.3999" r="1.8" fill="white"/>
<path d="M26.9999 31.8C27.9941 31.8 28.7999 32.6058 28.7999 33.6C28.7999 34.5941 27.9941 35.4 26.9999 35.4C26.0058 35.4 25.2 34.5941 25.2 33.6C25.2 32.6058 26.0058 31.8 26.9999 31.8Z" fill="white"/>
<circle cx="17.9999" cy="18.5999" r="1.8" fill="white"/>
<circle cx="6.60005" cy="12.6" r="1.8" fill="white"/>
<path d="M8.34063 16.8H4.85946C4.16407 16.8 3.6001 17.3411 3.6001 18.009V19.5906C4.48329 20.1024 5.50571 20.3999 6.60011 20.3999C7.69453 20.3999 8.71693 20.1023 9.60013 19.5906V18.009C9.59999 17.3411 9.03602 16.8 8.34063 16.8Z" fill="white"/>
<path d="M26.9999 6.6C26.9999 3.28618 24.3137 0.600037 21 0.600037C17.6862 0.600037 15 3.28625 15 6.6C15 8.81941 16.2084 10.7526 18 11.7906V10.209C18 9.54117 18.564 8.99997 19.2594 8.99997H22.7405C23.4359 8.99997 23.9999 9.54117 23.9999 10.209V11.7894C25.7921 10.7531 26.9999 8.81934 26.9999 6.6Z" fill="#FFE249"/>
<circle cx="20.9999" cy="4.8" r="1.8" fill="white"/>
<path d="M22.7405 8.99997H19.2594C18.564 8.99997 18 9.54115 18 10.209V11.7906C18.8832 12.3024 19.9056 12.6 21 12.6C22.0944 12.6 23.1168 12.3023 24.0001 11.7906V10.209C23.9999 9.54115 23.4359 8.99997 22.7405 8.99997Z" fill="white"/>
<path d="M34.8 22.1999C34.8 18.8861 32.1137 16.2 28.8 16.2C25.4863 16.2 22.8 18.8862 22.8 22.1999C22.8 24.4193 24.0084 26.3525 25.8 27.3905V25.8089C25.8 25.1411 26.364 24.5999 27.0594 24.5999H30.5406C31.236 24.5999 31.8 25.1411 31.8 25.8089V27.3893C33.5923 26.3531 34.8 24.4193 34.8 22.1999Z" fill="#FFE249"/>
<circle cx="28.8" cy="20.3999" r="1.8" fill="white"/>
<path d="M30.5406 24.6H27.0594C26.364 24.6 25.8 25.1412 25.8 25.809V27.3906C26.6833 27.9024 27.7057 28.2 28.8001 28.2C29.8945 28.2 30.9169 27.9023 31.8001 27.3906V25.809C31.8 25.1412 31.236 24.6 30.5406 24.6Z" fill="white"/>
<path d="M20.3998 29.3999C20.3998 26.0861 17.7136 23.3999 14.3999 23.3999C11.0861 23.3999 8.3999 26.0862 8.3999 29.3999C8.3999 31.6193 9.60829 33.5525 11.3999 34.5905V33.0089C11.3999 32.3411 11.9639 31.7999 12.6593 31.7999H16.1404C16.8358 31.7999 17.3998 32.3411 17.3998 33.0089V34.5893C19.1921 33.5531 20.3998 31.6193 20.3998 29.3999Z" fill="#FFE249"/>
<circle cx="14.4001" cy="27.5999" r="1.8" fill="white"/>
<path d="M16.1407 31.8H12.6595C11.9641 31.8 11.4001 32.3412 11.4001 33.009V34.5906C12.2833 35.1024 13.3057 35.3999 14.4002 35.3999C15.4946 35.3999 16.517 35.1023 17.4002 34.5906V33.009C17.4001 32.3412 16.8361 31.8 16.1407 31.8Z" fill="white"/>
<circle cx="6.60005" cy="2.39997" r="1.8" fill="white"/>
<path d="M33.5999 12C32.2763 12 31.2 10.9236 31.2 9.60004C31.2 8.27649 32.2764 7.20007 33.5999 7.20007C34.9236 7.20007 35.9999 8.27647 35.9999 9.60004C35.9999 10.9236 34.9235 12 33.5999 12ZM33.5999 8.40002C32.9382 8.40002 32.3999 8.93819 32.3999 9.60004C32.3999 10.2618 32.9381 10.8 33.5999 10.8C34.2617 10.8 34.7999 10.2619 34.7999 9.60004C34.7999 8.93819 34.2617 8.40002 33.5999 8.40002Z" fill="#1C1C1C"/>
<path d="M2.39997 31.8C1.07641 31.8 0 30.7235 0 29.3999C0 28.0764 1.07641 26.9999 2.39997 26.9999C3.72353 26.9999 4.79994 28.0764 4.79994 29.3999C4.80002 30.7235 3.7236 31.8 2.39997 31.8ZM2.39997 28.2C1.73819 28.2 1.19995 28.7382 1.19995 29.4C1.19995 30.0618 1.73812 30.6 2.39997 30.6C3.06182 30.6 3.59999 30.0618 3.59999 29.3999C3.59999 28.7382 3.06182 28.2 2.39997 28.2Z" fill="#1C1C1C"/>
<path d="M32.1755 9.09898C32.088 9.09898 31.9992 9.07979 31.9152 9.039L26.739 6.54003C26.4408 6.39603 26.3153 6.03722 26.4594 5.73903C26.6034 5.44084 26.9616 5.31484 27.2604 5.4594L32.4366 7.95837C32.7347 8.10237 32.8602 8.46117 32.7162 8.75937C32.6129 8.97418 32.3987 9.09898 32.1755 9.09898Z" fill="#1C1C1C"/>
<path d="M27.0001 35.9999C25.6765 35.9999 24.6001 34.9235 24.6001 33.6C24.6001 32.2764 25.6765 31.2 27.0001 31.2C28.3237 31.2 29.4001 32.2764 29.4001 33.6C29.4001 34.9235 28.3237 35.9999 27.0001 35.9999ZM27.0001 32.4C26.3383 32.4 25.8001 32.9382 25.8001 33.6C25.8001 34.2617 26.3382 34.8 27.0001 34.8C27.6619 34.8 28.2001 34.2618 28.2001 33.6C28.2001 32.9382 27.6619 32.4 27.0001 32.4Z" fill="#1C1C1C"/>
<path d="M25.5757 33.0989C25.4881 33.0989 25.3993 33.0797 25.3153 33.039L20.1392 30.54C19.841 30.396 19.7155 30.0372 19.8595 29.739C20.0035 29.4401 20.3617 29.3148 20.6605 29.4593L25.8367 31.9583C26.1349 32.1023 26.2604 32.4611 26.1163 32.7593C26.0131 32.9741 25.7989 33.0989 25.5757 33.0989Z" fill="#1C1C1C"/>
<path d="M18.0001 21C16.6765 21 15.6001 19.9236 15.6001 18.6C15.6001 17.2764 16.6765 16.2 18.0001 16.2C19.3237 16.2 20.4 17.2764 20.4 18.6C20.4 19.9236 19.3237 21 18.0001 21ZM18.0001 17.4C17.3383 17.4 16.8 17.9381 16.8 18.6C16.8 19.2618 17.3382 19.8 18.0001 19.8C18.6619 19.8 19.2001 19.2618 19.2001 18.6C19.2001 17.9381 18.6619 17.4 18.0001 17.4Z" fill="#1C1C1C"/>
<path d="M16.5757 18.099C16.4467 18.099 16.3171 18.0575 16.2073 17.9723L12.2312 14.8733C11.9695 14.6694 11.9233 14.2925 12.1267 14.0309C12.3307 13.7693 12.7075 13.7243 12.9691 13.9265L16.9453 17.0255C17.207 17.2295 17.2532 17.6063 17.0497 17.8679C16.9309 18.0198 16.7545 18.099 16.5757 18.099Z" fill="#1C1C1C"/>
<path d="M28.8 28.8C25.1609 28.8 22.2 25.839 22.2 22.1999C22.2 18.5609 25.1609 15.5999 28.8 15.5999C32.439 15.5999 35.4 18.5609 35.4 22.1999C35.4 25.839 32.439 28.8 28.8 28.8ZM28.8 16.7999C25.8221 16.7999 23.4 19.2221 23.4 22.1999C23.4 25.1777 25.8221 27.5999 28.8 27.5999C31.7778 27.5999 34.1999 25.1777 34.1999 22.1999C34.1999 19.2221 31.7778 16.7999 28.8 16.7999Z" fill="#1C1C1C"/>
<path d="M28.7999 22.8C27.4762 22.8 26.3999 21.7236 26.3999 20.4C26.3999 19.0764 27.4763 18.0001 28.7999 18.0001C30.1235 18.0001 31.1999 19.0764 31.1999 20.4C31.1999 21.7236 30.1235 22.8 28.7999 22.8ZM28.7999 19.2C28.1381 19.2 27.5999 19.7382 27.5999 20.4C27.5999 21.0618 28.138 21.6 28.7999 21.6C29.4616 21.6 29.9999 21.0619 29.9999 20.4C29.9999 19.7382 29.4616 19.2 28.7999 19.2Z" fill="#1C1C1C"/>
<path d="M28.8 28.8C27.6461 28.8 26.505 28.4921 25.4994 27.9102C25.3139 27.8028 25.2 27.6048 25.2 27.3905V25.809C25.2 24.8118 26.0339 23.9999 27.0594 23.9999H30.5405C31.5659 23.9999 32.3999 24.8118 32.3999 25.8096V27.3912C32.3999 27.6048 32.2859 27.8034 32.1006 27.9102C31.0949 28.4921 29.9538 28.8 28.8 28.8ZM26.4 27.033C27.8933 27.7769 29.7066 27.7769 31.2 27.033V25.8096C31.2 25.4735 30.9042 25.2 30.5406 25.2H27.0594C26.6958 25.2 26.4001 25.4735 26.4001 25.8096L26.4 27.033Z" fill="#1D1D1D"/>
<path d="M14.4001 35.9999C10.761 35.9999 7.80005 33.0389 7.80005 29.3999C7.80005 25.7609 10.761 22.7999 14.4001 22.7999C18.0391 22.7999 21.0001 25.7609 21.0001 29.3999C21.0001 33.0389 18.0391 35.9999 14.4001 35.9999ZM14.4001 23.9999C11.4223 23.9999 9.00006 26.4221 9.00006 29.3999C9.00006 32.3777 11.4223 34.7999 14.4001 34.7999C17.3779 34.7999 19.8 32.3777 19.8 29.3999C19.8 26.4221 17.3779 23.9999 14.4001 23.9999Z" fill="#1C1C1C"/>
<path d="M14.4 30C13.0763 30 12 28.9236 12 27.6C12 26.2764 13.0763 25.2 14.4 25.2C15.7236 25.2 16.7999 26.2764 16.7999 27.5999C16.7999 28.9235 15.7236 30 14.4 30ZM14.4 26.4C13.7382 26.4 13.2 26.9381 13.2 27.6C13.2 28.2618 13.7382 28.8 14.4 28.8C15.0618 28.8 15.6 28.2617 15.6 27.5999C15.6 26.9381 15.0618 26.4 14.4 26.4Z" fill="#1D1D1D"/>
<path d="M14.4 35.9999C13.2462 35.9999 12.1051 35.692 11.0994 35.1101C10.914 35.0027 10.8 34.8047 10.8 34.5905V33.0089C10.8 32.0117 11.634 31.1999 12.6595 31.1999H16.1406C17.166 31.1999 18 32.0117 18 33.0095V34.5912C18 34.8047 17.8861 35.0033 17.7007 35.1101C16.695 35.692 15.5539 35.9999 14.4 35.9999ZM12.0001 34.2329C13.4934 34.9768 15.3067 34.9768 16.8001 34.2329V33.0095C16.8001 32.6735 16.5043 32.3999 16.1407 32.3999H12.6595C12.2959 32.3999 12.0002 32.6735 12.0002 33.0095L12.0001 34.2329Z" fill="#1D1D1D"/>
<path d="M6.60001 21C2.96099 21 0 18.039 0 14.4C0 10.761 2.96099 7.79996 6.60001 7.79996C10.239 7.79996 13.2 10.761 13.2 14.4C13.2 18.039 10.239 21 6.60001 21ZM6.60001 8.99997C3.62221 8.99997 1.20002 11.4222 1.20002 14.4C1.20002 17.3778 3.62221 19.8 6.60001 19.8C9.57781 19.8 12 17.3778 12 14.4C12 11.4222 9.57781 8.99997 6.60001 8.99997Z" fill="#1C1C1C"/>
<path d="M6.59993 15C5.27629 15 4.19995 13.9236 4.19995 12.6C4.19995 11.2764 5.27636 10.2 6.59993 10.2C7.92348 10.2 8.9999 11.2764 8.9999 12.6C8.9999 13.9236 7.92348 15 6.59993 15ZM6.59993 11.4C5.93814 11.4 5.3999 11.9381 5.3999 12.6C5.3999 13.2618 5.93808 13.8 6.59993 13.8C7.26178 13.8 7.79994 13.2618 7.79994 12.6C7.79994 11.9381 7.2617 11.4 6.59993 11.4Z" fill="#1C1C1C"/>
<path d="M6.59999 21C5.44617 21 4.305 20.6921 3.29939 20.1102C3.11398 20.0028 3 19.8048 3 19.5905V18.0089C3 17.0118 3.83397 16.2 4.85941 16.2H8.34058C9.36594 16.2 10.2 17.0118 10.2 18.0096V19.5912C10.2 19.8048 10.086 20.0034 9.9006 20.1102C8.89499 20.6921 7.75375 21 6.59999 21ZM4.19995 19.2329C5.69331 19.9769 7.50653 19.9769 8.99997 19.2329V18.0096C8.99997 17.6736 8.70416 17.4 8.34058 17.4H4.85941C4.49582 17.4 4.20002 17.6736 4.20002 18.0096L4.19995 19.2329Z" fill="#1D1D1D"/>
<path d="M20.9999 13.2C17.3609 13.2 14.3999 10.239 14.3999 6.59994C14.3999 2.96093 17.3609 0 20.9999 0C24.6389 0 27.5999 2.96099 27.5999 6.60001C27.5999 10.239 24.6389 13.2 20.9999 13.2ZM20.9999 1.20002C18.0221 1.20002 15.5999 3.62221 15.5999 6.60001C15.5999 9.57781 18.0221 12 20.9999 12C23.9777 12 26.3999 9.57781 26.3999 6.60001C26.3999 3.62221 23.9777 1.20002 20.9999 1.20002Z" fill="#1C1C1C"/>
<path d="M21.0001 7.19997C19.6764 7.19997 18.6001 6.12356 18.6001 4.8C18.6001 3.47644 19.6765 2.40002 21.0001 2.40002C22.3236 2.40002 23.4 3.47636 23.4 4.8C23.4 6.12363 22.3236 7.19997 21.0001 7.19997ZM21.0001 3.59998C20.3383 3.59998 19.8 4.13815 19.8 4.8C19.8 5.46185 20.3382 6.00002 21.0001 6.00002C21.6618 6.00002 22.2001 5.46185 22.2001 4.8C22.2001 4.13815 21.6618 3.59998 21.0001 3.59998Z" fill="#1C1C1C"/>
<path d="M20.9999 13.2C19.8461 13.2 18.7049 12.8921 17.6993 12.3102C17.5139 12.2028 17.3999 12.0048 17.3999 11.7905V10.2089C17.3999 9.21176 18.2339 8.39993 19.2593 8.39993H22.7405C23.7659 8.39993 24.5999 9.21176 24.5999 10.2096V11.7912C24.5999 12.0048 24.4859 12.2034 24.3005 12.3102C23.2949 12.8922 22.1537 13.2 20.9999 13.2ZM18.5999 11.433C20.0932 12.177 21.9064 12.177 23.3999 11.433V10.2096C23.3999 9.87361 23.1041 9.60004 22.7405 9.60004H19.2593C18.8958 9.60004 18.5999 9.87361 18.5999 10.2096L18.5999 11.433Z" fill="#1D1D1D"/>
<path d="M10.8425 10.758C10.6733 10.758 10.5053 10.6866 10.3865 10.548C10.1711 10.296 10.2005 9.91736 10.4525 9.70199L14.6105 6.14397C14.8625 5.92861 15.2412 5.95856 15.4565 6.20936C15.6719 6.46137 15.6425 6.83999 15.3905 7.05536L11.2325 10.6134C11.1191 10.7106 10.9805 10.758 10.8425 10.758Z" fill="#1D1D1D"/>
<path d="M28.2005 16.7999C28.0182 16.7999 27.8382 16.7171 27.72 16.56L24.12 11.7599C23.9213 11.4954 23.9748 11.1191 24.24 10.9206C24.5052 10.7225 24.8814 10.7747 25.08 11.0406L28.68 15.8406C28.8786 16.1052 28.8252 16.4814 28.56 16.68C28.452 16.761 28.3254 16.7999 28.2005 16.7999Z" fill="#1C1C1C"/>
<path d="M19.9248 27.6569C19.7424 27.6569 19.5624 27.5741 19.4442 27.417C19.2456 27.1524 19.299 26.7761 19.5642 26.5776L22.9158 24.0642C23.181 23.8656 23.5572 23.919 23.7558 24.1842C23.9545 24.4488 23.901 24.8251 23.6358 25.0236L20.2842 27.537C20.1762 27.6173 20.0502 27.6569 19.9248 27.6569Z" fill="#1C1C1C"/>
<path d="M8.40011 30H4.20007C3.8689 30 3.6001 29.7318 3.6001 29.4C3.6001 29.0682 3.8689 28.8 4.20007 28.8H8.40004C8.73121 28.8 9.00002 29.0682 9.00002 29.4C9.00009 29.7317 8.73129 30 8.40011 30Z" fill="#1C1C1C"/>
<path d="M6.59993 4.80002C5.27629 4.80002 4.19995 3.7236 4.19995 2.40004C4.19995 1.07648 5.27629 0 6.59993 0C7.92355 0 8.9999 1.07641 8.9999 2.39997C8.9999 3.72353 7.92348 4.80002 6.59993 4.80002ZM6.59993 1.20002C5.93814 1.20002 5.3999 1.73819 5.3999 2.40004C5.3999 3.06189 5.93808 3.59999 6.59993 3.59999C7.26178 3.59999 7.79994 3.06182 7.79994 2.39997C7.79994 1.73812 7.2617 1.20002 6.59993 1.20002Z" fill="#1C1C1C"/>
<path d="M6.59997 8.99997C6.26879 8.99997 6 8.7318 6 8.39999V4.19995C6 3.86814 6.26879 3.59998 6.59997 3.59998C6.93114 3.59998 7.19994 3.86814 7.19994 4.19995V8.39992C7.19994 8.7318 6.93114 8.99997 6.59997 8.99997Z" fill="#1C1C1C"/>
</svg>
