<svg width="28" height="35" viewBox="0 0 28 35" fill="none" xmlns="http://www.w3.org/2000/svg">
<path d="M0.951904 9.16016L4.75932 34.3164H8.37463L6.09021 9.16016H0.951904Z" fill="#FF7D97"/>
<path d="M21.5051 9.16016L19.2207 34.3164H22.836L26.6434 9.16016H21.5051Z" fill="#FF7D97"/>
<path d="M6.09009 9.16016L8.37453 34.3164H11.9898L11.2284 9.16016H6.09009Z" fill="white"/>
<path d="M16.3667 9.16016L15.6052 34.3164H19.2206L21.505 9.16016H16.3667Z" fill="white"/>
<path d="M11.2285 9.16016L11.99 34.3164H15.6053L16.3668 9.16016H11.2285Z" fill="#FF7D97"/>
<path d="M26.1194 9.16063C26.3128 8.77973 26.4218 8.34879 26.4218 7.89236C26.4218 6.58957 25.5338 5.49445 24.3301 5.17849C24.4366 4.34629 24.1711 3.47546 23.5319 2.8363C22.4629 1.76729 20.7462 1.74173 19.6455 2.75864C19.1454 2.29694 18.4773 2.01448 17.743 2.01448C17.2435 2.01448 16.7749 2.14559 16.3686 2.37439C15.9372 1.3797 14.9468 0.683594 13.7935 0.683594C12.6402 0.683594 11.6498 1.3797 11.2185 2.37446C10.8122 2.14566 10.3436 2.01455 9.84412 2.01455C9.1098 2.01455 8.44166 2.29701 7.94154 2.75871C6.84089 1.7418 5.12418 1.76736 4.05518 2.83637C3.41602 3.47559 3.15037 4.34635 3.25695 5.17856C2.05328 5.49445 1.16528 6.58963 1.16528 7.89243C1.16528 8.34866 1.27419 8.77952 1.46743 9.16036L26.1194 9.16063Z" fill="#FFDA8F"/>
<circle cx="13.7977" cy="21.7383" r="6.19075" fill="white"/>
<circle cx="13.7978" cy="21.7383" r="3.01601" fill="#FFCD69"/>
<path d="M27.1617 8.71438C27.1232 8.66967 27.0791 8.63132 27.0315 8.59844C27.0793 8.36643 27.1052 8.1297 27.1052 7.89236C27.1052 6.49789 26.2774 5.25615 25.0354 4.70387C25.0081 3.82327 24.6506 2.9884 24.0151 2.35293C22.8266 1.16443 21.0042 1.00447 19.6446 1.89472C19.0822 1.52824 18.4242 1.33089 17.7428 1.33089C17.375 1.33089 17.0099 1.3894 16.6623 1.50254C16.0186 0.572851 14.9527 0 13.7934 0C12.6341 0 11.5682 0.572851 10.9245 1.50261C10.5769 1.38947 10.2117 1.33096 9.84396 1.33096C9.1625 1.33096 8.5046 1.52824 7.94214 1.89478C6.58255 1.00447 4.76028 1.16457 3.57166 2.353C2.93619 2.98846 2.57873 3.82334 2.55139 4.70394C1.30937 5.25622 0.481542 6.49796 0.481542 7.89242C0.481542 8.13148 0.507856 8.36998 0.55639 8.6035C0.511617 8.63528 0.470125 8.67199 0.433618 8.71444C0.303804 8.86545 0.246248 9.06554 0.275983 9.26248L4.08332 34.4187C4.13391 34.7529 4.42116 35 4.75926 35H22.8359C23.174 35 23.4612 34.7529 23.5119 34.4187L24.9551 24.8824C25.0116 24.5091 24.7548 24.1607 24.3815 24.1042C24.0087 24.0474 23.6598 24.3045 23.6033 24.6778L22.248 33.6328H19.9691L22.1294 9.84374H25.8485L24.5241 18.594C24.4677 18.9673 24.7245 19.3157 25.0978 19.3722C25.4706 19.429 25.8195 19.1719 25.876 18.7986L27.3193 9.26241C27.3491 9.06554 27.2916 8.86545 27.1617 8.71438ZM3.43028 5.83973C3.76251 5.75257 3.97846 5.43245 3.93485 5.09181C3.85062 4.43344 4.07061 3.78752 4.53846 3.31973C5.34715 2.51111 6.63825 2.48527 7.4775 3.26081C7.73932 3.50273 8.14312 3.5028 8.40507 3.26094C8.7982 2.89802 9.30926 2.69814 9.84396 2.69814C10.2077 2.69814 10.567 2.79214 10.883 2.97008C11.0517 3.0651 11.2527 3.08403 11.4363 3.02237C11.6197 2.96064 11.7685 2.82399 11.8455 2.64639C12.1825 1.86929 12.9471 1.36719 13.7934 1.36719C14.6398 1.36719 15.4043 1.86929 15.7412 2.64633C15.8183 2.82399 15.967 2.96064 16.1505 3.0223C16.334 3.08396 16.535 3.06503 16.7038 2.97001C17.0198 2.79207 17.3791 2.69807 17.7428 2.69807C18.2775 2.69807 18.7886 2.89796 19.1817 3.26088C19.4436 3.5028 19.8474 3.50253 20.1093 3.26074C20.9487 2.48527 22.2398 2.51104 23.0483 3.31967C23.5162 3.78745 23.7361 4.43338 23.6519 5.09174C23.6083 5.43238 23.8243 5.7525 24.1565 5.83966C25.0877 6.08405 25.7381 6.92815 25.7381 7.89229C25.7381 8.09306 25.7103 8.28829 25.6565 8.47642H1.93035C1.87655 8.28829 1.84873 8.09306 1.84873 7.89229C1.84873 6.92822 2.49909 6.08412 3.43028 5.83973ZM13.7977 27.2454C10.761 27.2454 8.29049 24.7749 8.29049 21.7383C8.29049 18.7016 10.7611 16.2311 13.7977 16.2311C16.8342 16.2311 19.3048 18.7016 19.3048 21.7383C19.3048 24.7749 16.8343 27.2454 13.7977 27.2454ZM6.83868 9.84374H10.5653L10.739 15.5831C9.40031 16.251 8.30882 17.3429 7.64129 18.682L6.83868 9.84374ZM15.5037 15.0783C14.958 14.9384 14.3864 14.8639 13.7977 14.8639C13.2089 14.8639 12.6373 14.9384 12.0915 15.0783L11.9332 9.84374H15.6622L15.5037 15.0783ZM1.74673 9.84374H5.46589L7.62618 33.6328H5.34722L1.74673 9.84374ZM8.29227 25.8507C9.01695 26.8184 9.99045 27.5895 11.1169 28.0683L11.2854 33.6328H8.99898L8.29227 25.8507ZM12.6532 33.6328L12.4975 28.4887C12.9186 28.5697 13.3533 28.6126 13.7977 28.6126C14.2421 28.6126 14.6766 28.5697 15.0979 28.4887L14.9421 33.6328H12.6532ZM16.3099 33.6328L16.4783 28.0683C17.6048 27.5895 18.5783 26.8184 19.303 25.8507L18.5963 33.6328H16.3099ZM19.954 18.6821C19.2866 17.343 18.195 16.2511 16.8562 15.5831L17.03 9.84374H20.7566L19.954 18.6821Z" fill="black"/>
<path d="M6.61011 6.99554C6.98758 6.99554 7.2937 6.68949 7.2937 6.31194C7.2937 6.20831 7.37798 6.12396 7.48169 6.12396C7.85918 6.12396 8.16528 5.81792 8.16528 5.44037C8.16528 5.06281 7.85918 4.75677 7.48169 4.75677C6.62419 4.75677 5.92651 5.45445 5.92651 6.31194C5.92651 6.68949 6.23256 6.99554 6.61011 6.99554Z" fill="black"/>
<path d="M20.1052 6.12396C20.2089 6.12396 20.2932 6.20831 20.2932 6.31194C20.2932 6.68949 20.5993 6.99554 20.9768 6.99554C21.3543 6.99554 21.6604 6.68949 21.6604 6.31194C21.6604 5.45445 20.9627 4.75677 20.1052 4.75677C19.7277 4.75677 19.4216 5.06281 19.4216 5.44037C19.4216 5.81792 19.7277 6.12396 20.1052 6.12396Z" fill="black"/>
<path d="M13.6603 5.71346C13.7338 5.64018 13.8528 5.64018 13.9263 5.71346C14.0598 5.84697 14.2347 5.91369 14.4096 5.91369C14.5846 5.91369 14.7596 5.8469 14.893 5.71346C15.16 5.44646 15.16 5.01368 14.8929 4.74673C14.2867 4.14045 13.3 4.14045 12.6937 4.74673C12.4267 5.01368 12.4267 5.44646 12.6936 5.71346C12.9606 5.98034 13.3935 5.98047 13.6603 5.71346Z" fill="black"/>
<path d="M13.7977 18.0386C11.7578 18.0386 10.0981 19.6983 10.0981 21.7383C10.0981 23.7782 11.7578 25.4379 13.7977 25.4379C15.8377 25.4379 17.4973 23.7782 17.4973 21.7383C17.4973 19.6983 15.8377 18.0386 13.7977 18.0386ZM13.7977 24.0707C12.5116 24.0707 11.4653 23.0244 11.4653 21.7383C11.4653 20.4521 12.5117 19.4058 13.7977 19.4058C15.0838 19.4058 16.1302 20.4521 16.1302 21.7383C16.1302 23.0244 15.0839 24.0707 13.7977 24.0707Z" fill="black"/>
<path d="M24.7397 21.0547C24.5599 21.0547 24.3836 21.1278 24.2564 21.2549C24.1293 21.3821 24.0562 21.5585 24.0562 21.7383C24.0562 21.918 24.1293 22.0944 24.2564 22.2216C24.3836 22.3487 24.5599 22.4218 24.7397 22.4218C24.9195 22.4218 25.0959 22.3487 25.2231 22.2216C25.3501 22.0944 25.4233 21.918 25.4233 21.7383C25.4233 21.5585 25.3502 21.3821 25.2231 21.2549C25.0959 21.1278 24.9195 21.0547 24.7397 21.0547Z" fill="black"/>
</svg>
