<svg width="30" height="34" viewBox="0 0 30 34" fill="none" xmlns="http://www.w3.org/2000/svg">
<path d="M20.6202 21.0843C21.296 20.8208 22.0258 20.6789 22.7962 20.6789C22.9584 20.6789 23.1138 20.6856 23.276 20.6991C24.2153 20.7667 25.1006 21.0641 25.871 21.5236C27.6415 22.571 28.8241 24.497 28.8241 26.7C28.8241 30.0249 26.1278 32.7213 22.8029 32.7213C19.4781 32.7213 16.7817 30.0249 16.7817 26.7C16.7817 25.2742 17.2818 23.9631 18.1063 22.9292C18.755 22.1048 19.62 21.4628 20.6202 21.0843Z" fill="#FDC75B"/>
<path d="M25.9048 9.20412V21.4492L25.8643 21.5168C25.0939 21.0573 24.2154 20.7599 23.2693 20.6924L23.2896 20.4761V9.20412H25.9048Z" fill="#ED664C"/>
<path d="M20.6201 12.7317V21.0843C19.62 21.4695 18.755 22.1115 18.0927 22.9292L18.0049 22.8616V12.7317H20.6201Z" fill="#ED664C"/>
<rect x="12.7205" y="16.6039" width="2.61527" height="12.1978" fill="#ED664C"/>
<rect x="7.39526" y="18.1717" width="2.61527" height="10.63" fill="#ED664C"/>
<rect x="2.07007" y="23.9834" width="2.61527" height="4.82507" fill="#ED664C"/>
<path d="M26.5806 21.1722V9.20412C26.5806 8.83244 26.2765 8.57565 25.9048 8.57565H23.2896C22.9179 8.57565 22.5935 8.83244 22.5935 9.20412V19.9963C22.1881 20.0098 21.715 20.0639 21.3095 20.1653V12.7317C21.3095 12.36 20.9919 12.0897 20.6203 12.0897H18.005C17.6333 12.0897 17.3224 12.3533 17.3224 12.7317V22.8211C16.5115 23.9496 16.0925 25.308 16.0925 26.7001C16.0925 30.3966 19.0998 33.397 22.7963 33.397C26.4928 33.397 29.5 30.3898 29.5 26.7001C29.4933 24.4903 28.4052 22.4089 26.5806 21.1722ZM25.2291 9.92722V20.4559C24.8236 20.2937 24.4182 20.1788 23.9451 20.1044V9.92722H25.2291ZM19.958 13.4413V20.6383C19.485 20.8478 19.0795 21.1114 18.674 21.4087V13.4413H19.958ZM22.7963 32.0455C19.8499 32.0455 17.4508 29.6465 17.4508 26.7001C17.4508 25.4701 17.8563 24.3146 18.6267 23.3549C19.1876 22.6521 19.9242 22.1048 20.7554 21.7669C20.8365 21.7534 20.9108 21.7196 20.9784 21.679C21.5596 21.4628 22.1746 21.3546 22.803 21.3546C22.9449 21.3546 23.0801 21.3614 23.222 21.3749H23.2288C24.0397 21.4357 24.8304 21.6858 25.5264 22.1048C27.1415 23.0644 28.1484 24.8214 28.1484 26.7001C28.1417 29.6465 25.7427 32.0455 22.7963 32.0455Z" fill="black"/>
<path d="M24.675 26.8893C25.0467 26.8893 25.3508 26.5852 25.3508 26.2135C25.3508 25.8418 25.0467 25.5377 24.675 25.5377H21.215C21.3299 25.335 21.4785 25.1187 21.6542 24.9363C22.3503 24.2402 23.3978 24.0172 24.3168 24.3686C24.6682 24.5038 25.0534 24.3281 25.1886 23.9767C25.3237 23.6253 25.148 23.2401 24.8034 23.1049C23.3842 22.5575 21.7759 22.9089 20.7014 23.9834C20.2621 24.4227 19.9445 24.9971 19.7621 25.5377H19.7485C19.3769 25.5377 19.0728 25.8351 19.0728 26.2067C19.0728 26.5244 19.289 26.7879 19.5796 26.8623C19.5864 27.0109 19.5999 27.1596 19.6269 27.3015C19.3093 27.3556 19.0728 27.6394 19.0728 27.9705C19.0728 28.3422 19.3769 28.6463 19.7485 28.6463H20.1067C20.2757 28.9166 20.4716 29.1869 20.7014 29.4167C21.438 30.1533 22.4246 30.5385 23.4248 30.5385C23.8843 30.5385 24.3506 30.4574 24.8034 30.2817C25.1548 30.1466 25.3237 29.7546 25.1953 29.41C25.0602 29.0585 24.6682 28.8896 24.3236 29.0248C23.4856 29.3424 22.553 29.1869 21.8637 28.6463H24.3236C24.6953 28.6463 24.9994 28.3422 24.9994 27.9705C24.9994 27.5989 24.6953 27.2948 24.3236 27.2948H20.9987C20.9649 27.1596 20.9447 27.0244 20.9312 26.8893H24.675Z" fill="black"/>
<path d="M10.6997 18.1717C10.6997 17.8 10.3956 17.4959 10.024 17.4959H7.38843C7.01675 17.4959 6.71265 17.8 6.71265 18.1717V28.7815C6.71265 29.1531 7.01675 29.4572 7.38843 29.4572H10.024C10.3956 29.4572 10.6997 29.1531 10.6997 28.7815V18.1717ZM9.34818 28.1732H8.0642V18.8475H9.34818V28.1732Z" fill="black"/>
<path d="M16.0384 16.6174C16.0384 16.2457 15.7343 15.9416 15.3626 15.9416H12.7271C12.3554 15.9416 12.0513 16.2457 12.0513 16.6174V28.849C12.0513 29.2207 12.3554 29.5248 12.7271 29.5248H15.3626C15.7343 29.5248 16.0384 29.2207 16.0384 28.849V16.6174ZM14.6868 28.1732H13.4028V17.2932H14.6868V28.1732Z" fill="black"/>
<path d="M5.36112 23.9834C5.36112 23.6118 5.05702 23.3076 4.68534 23.3076H2.0498C1.67812 23.3076 1.37402 23.6118 1.37402 23.9834V28.7815C1.37402 29.1531 1.67812 29.4572 2.0498 29.4572H4.68534C5.05702 29.4572 5.36112 29.1531 5.36112 28.7815V23.9834ZM4.00956 28.1732H2.72558V24.6592H4.00956V28.1732Z" fill="black"/>
<path d="M1.98222 20.0369L14.4841 7.53494L17.0454 10.1164C17.1738 10.2448 17.3427 10.3327 17.5252 10.3327C17.7076 10.3327 17.8766 10.2381 18.005 10.1164L25.7967 2.31117L25.7899 5.31839C25.7899 5.69006 26.094 6.01444 26.4657 6.01444C26.8374 6.01444 27.1415 5.69006 27.1415 5.31839L27.1483 0.682537C27.1483 0.500077 27.0807 0.331132 26.9523 0.202734C26.8239 0.0743358 26.6549 0 26.4725 0L21.8501 0.0067578C21.4785 0.0067578 21.1744 0.310859 21.1744 0.682537C21.1744 1.05422 21.4785 1.35832 21.8501 1.35832L24.8438 1.35156L17.5184 8.65674L14.9572 6.11581C14.8288 5.98741 14.6599 5.9401 14.4774 5.9401C14.2949 5.9401 14.126 5.99417 13.9976 6.11581L1.02262 19.0908C0.759063 19.3543 0.759063 19.7801 1.02262 20.0436C1.15777 20.1788 1.32672 20.2396 1.50242 20.2396C1.67812 20.2396 1.84707 20.1653 1.98222 20.0369Z" fill="black"/>
</svg>
