<svg width="32" height="28" viewBox="0 0 32 28" fill="none" xmlns="http://www.w3.org/2000/svg">
<path d="M8.073 9.66711H24.2342V23.6663H8.073V9.66711Z" fill="#80B4FB"/>
<path d="M30.0231 1.68512H28.0992V0.615059C28.0992 0.275326 27.8237 -6.10352e-05 27.4841 -6.10352e-05H23.8955C23.5558 -6.10352e-05 23.2804 0.275326 23.2804 0.615059V1.68512H18.563V0.615059C18.563 0.275326 18.2876 -6.10352e-05 17.9479 -6.10352e-05H14.3593C14.0196 -6.10352e-05 13.7442 0.275326 13.7442 0.615059V1.68512H9.6419V0.615059C9.6419 0.275326 9.36651 -6.10352e-05 9.02678 -6.10352e-05H5.43817C5.09844 -6.10352e-05 4.82305 0.275326 4.82305 0.615059V1.68512H2.28396C1.24872 1.68512 0.406494 2.52734 0.406494 3.56259V25.2008C0.406494 26.3582 1.34953 27.2999 2.50866 27.2999H29.3952C30.7767 27.2999 31.9006 26.176 31.9006 24.7945V3.56259C31.9006 2.52734 31.0584 1.68512 30.0231 1.68512ZM24.5106 1.23018H26.8689V3.41576H24.5106V1.23018ZM14.9744 1.23018H17.3327V3.41576H14.9744V1.23018ZM6.05329 1.23018H8.4116V3.41576H6.05329V1.23018ZM1.63673 3.56259C1.63673 3.2057 1.92707 2.91536 2.28396 2.91536H4.82305V4.03082C4.82305 4.37055 5.09844 4.64594 5.43817 4.64594H9.02672C9.36645 4.64594 9.64184 4.37055 9.64184 4.03082V2.91536H13.7441V4.03082C13.7441 4.37055 14.0195 4.64594 14.3592 4.64594H17.9478C18.2875 4.64594 18.5629 4.37055 18.5629 4.03082V2.91536H23.2803V4.03082C23.2803 4.37055 23.5558 4.64594 23.8954 4.64594H27.4841C27.8237 4.64594 28.0992 4.37055 28.0992 4.03082V2.91536H30.0231C30.38 2.91536 30.6704 3.2057 30.6704 3.56259V6.15181H1.63673L1.63673 3.56259ZM30.6704 24.7945C30.6704 25.4977 30.0983 26.0697 29.3952 26.0697H2.50866C2.02789 26.0697 1.63673 25.6799 1.63673 25.2008V7.38205H30.6704V24.7945Z" fill="#242424"/>
<path d="M27.946 16.5201H28.5927C28.9324 16.5201 29.2079 16.2448 29.2079 15.905C29.2079 15.5652 28.9324 15.2899 28.5927 15.2899H27.946C27.6063 15.2899 27.3308 15.5652 27.3308 15.905C27.3308 16.2448 27.6063 16.5201 27.946 16.5201Z" fill="#242424"/>
<path d="M20.8438 14.6366L18.2121 13.8607L16.661 11.5975C16.5463 11.4301 16.3564 11.3301 16.1536 11.3301C15.9507 11.3301 15.7609 11.4301 15.6462 11.5975L14.095 13.8607L11.4632 14.6366C11.2685 14.694 11.1147 14.8436 11.0521 15.0365C10.9894 15.2294 11.0259 15.4409 11.1496 15.6017L12.8228 17.7762L12.7474 20.519C12.7418 20.7218 12.8366 20.9143 13.0007 21.0335C13.1072 21.1109 13.2341 21.151 13.3623 21.151C13.4316 21.151 13.5013 21.1393 13.5684 21.1154L16.1536 20.1962L18.7387 21.1154C18.9298 21.1834 19.1422 21.1528 19.3064 21.0335C19.4706 20.9142 19.5653 20.7218 19.5597 20.519L19.4843 17.7762L21.1574 15.6017C21.2811 15.4409 21.3176 15.2294 21.2549 15.0365C21.1922 14.8436 21.0385 14.694 20.8438 14.6366ZM18.3759 17.1994C18.2896 17.3116 18.2446 17.45 18.2485 17.5914L18.3053 19.6557L16.3597 18.9638C16.2264 18.9164 16.0809 18.9164 15.9475 18.9638L14.0019 19.6557L14.0586 17.5914C14.0625 17.45 14.0175 17.3116 13.9312 17.1994L12.672 15.5629L14.6527 14.9789C14.7884 14.9389 14.9062 14.8534 14.9862 14.7366L16.1536 13.0334L17.3209 14.7367C17.4009 14.8534 17.5186 14.9389 17.6544 14.979L19.6351 15.5629L18.3759 17.1994Z" fill="#292929"/>
<path d="M27.2849 11.5283C27.0446 11.2881 26.6552 11.2881 26.4149 11.5283L25.9575 11.9857C25.7173 12.2259 25.7173 12.6154 25.9575 12.8556C26.0776 12.9758 26.2351 13.0358 26.3925 13.0358C26.5499 13.0358 26.7073 12.9758 26.8274 12.8556L27.2848 12.3982C27.5251 12.1581 27.5251 11.7686 27.2849 11.5283Z" fill="#242424"/>
<path d="M26.4147 20.2816C26.5349 20.4017 26.6923 20.4618 26.8497 20.4618C27.0071 20.4618 27.1646 20.4017 27.2846 20.2816C27.5248 20.0414 27.5248 19.6519 27.2846 19.4117L26.8272 18.9544C26.587 18.7141 26.1975 18.7141 25.9573 18.9544C25.717 19.1946 25.717 19.5841 25.9573 19.8243L26.4147 20.2816Z" fill="#242424"/>
<path d="M3.71449 16.5201H4.36129C4.70101 16.5201 4.9764 16.2448 4.9764 15.905C4.9764 15.5652 4.70101 15.2899 4.36129 15.2899H3.71449C3.37476 15.2899 3.09937 15.5652 3.09937 15.905C3.09937 16.2448 3.37476 16.5201 3.71449 16.5201Z" fill="#242424"/>
<path d="M5.47986 18.9543L5.02246 19.4117C4.78225 19.6519 4.7822 20.0414 5.02246 20.2816C5.1426 20.4017 5.30001 20.4618 5.45741 20.4618C5.61482 20.4618 5.77223 20.4016 5.89237 20.2816L6.34976 19.8243C6.58997 19.5841 6.59004 19.1945 6.34976 18.9543C6.10962 18.7142 5.72013 18.7142 5.47986 18.9543Z" fill="#242424"/>
<path d="M5.47966 12.8556C5.5998 12.9758 5.75721 13.0358 5.91462 13.0358C6.07202 13.0358 6.2295 12.9758 6.34956 12.8556C6.58977 12.6154 6.58977 12.2259 6.34956 11.9857L5.89217 11.5283C5.65196 11.2881 5.26247 11.2881 5.02219 11.5283C4.78199 11.7685 4.78199 12.158 5.02219 12.3983L5.47966 12.8556Z" fill="#242424"/>
</svg>
