<svg width="38" height="35" viewBox="0 0 38 35" fill="none" xmlns="http://www.w3.org/2000/svg">
<path d="M31.5316 13.3341C31.5316 13.3341 36.8246 18.8108 36.8246 27.2054C36.8246 27.2054 32.2179 28.8872 25.2043 28.8872C22.4473 28.8872 20.0613 28.6273 18.1822 28.3115C15.2809 27.8248 13.584 27.2054 13.584 27.2054C13.584 18.8108 18.877 13.3341 18.877 13.3341V9.91019L16.0231 7.5666L13.584 5.56396L18.2418 1.38857C18.8124 0.876787 19.5165 0.597566 20.2322 0.549474C20.5659 0.527223 20.9012 0.555216 21.2278 0.633455C21.7553 0.759786 22.2571 1.01747 22.6834 1.40508L23.1801 1.85729C24.3272 2.90239 26.0815 2.90239 27.2292 1.85729L27.7259 1.40508C28.1523 1.01747 28.6541 0.759786 29.1816 0.633455C30.2088 0.387254 31.3307 0.638479 32.1669 1.38857L36.8246 5.56396L31.5316 9.91019V13.3341Z" fill="#80B4FB"/>
<path d="M20.51 7.41957V13.6664C20.51 13.6664 18.3494 20.2299 18.3494 23.4399C18.3494 24.7176 18.2733 26.5587 18.1822 28.3116C15.2809 27.8249 13.584 27.2054 13.584 27.2054C13.584 18.8109 18.877 13.3341 18.877 13.3341V6.56964H19.66C20.1295 6.56956 20.51 6.95013 20.51 7.41957Z" fill="#61A2F9"/>
<path d="M20.2322 0.549469C18.61 2.06042 16.7294 5.23952 16.023 7.5666L13.584 5.56396L18.2417 1.38857C18.8124 0.876781 19.5166 0.597561 20.2322 0.549469Z" fill="#61A2F9"/>
<path d="M29.1817 0.633453C29.0101 1.44097 27.665 7.37782 25.2043 8.23989C22.7438 7.37783 21.3994 1.44097 21.2278 0.633453C21.7554 0.759789 22.2571 1.01748 22.6835 1.40508L23.1802 1.85729C24.3273 2.9024 26.0815 2.9024 27.2292 1.85729L27.726 1.40508C28.1523 1.01748 28.6541 0.759789 29.1817 0.633453Z" fill="#61A2F9"/>
<path d="M20.8599 21.4468C15.1342 21.1478 9.40849 21.1478 3.68274 21.4468C2.5192 21.5076 1.56361 22.3901 1.41596 23.5458C1.06187 26.3173 1.06187 29.0888 1.41596 31.8604C1.56361 33.016 2.5192 33.8986 3.68274 33.9592C9.40849 34.2583 15.1342 34.2583 20.8599 33.9592C22.0235 33.8985 22.9791 33.016 23.1267 31.8604C23.4808 29.0888 23.4808 26.3173 23.1267 23.5458C22.979 22.3901 22.0234 21.5076 20.8599 21.4468Z" fill="#DB5B6F"/>
<path d="M4.72721 34.0104C4.37908 33.9946 4.03095 33.9774 3.68282 33.9595C2.51928 33.8985 1.5639 33.0163 1.41604 31.86C1.06217 29.0886 1.06217 26.3172 1.41604 23.5458C1.5639 22.3901 2.51928 21.5072 3.68282 21.447C4.03095 21.429 4.37908 21.4118 4.72721 21.396C3.9886 21.7614 3.4517 22.4777 3.34187 23.3383C2.97006 26.2482 2.97006 29.1582 3.34187 32.0674C3.4517 32.928 3.9886 33.6443 4.72721 34.0104Z" fill="#D54653"/>
<path d="M23.1264 27.2186C22.9789 28.3743 22.0233 29.2565 20.8598 29.3171C15.1343 29.6168 9.40887 29.6168 3.68254 29.3171C2.51893 29.2565 1.56341 28.3743 1.4159 27.2186C1.33824 26.6102 1.27801 26.0018 1.23344 25.3934C1.12634 26.9025 1.12397 28.4115 1.22683 29.9207C1.66009 30.5771 2.3888 31.0168 3.2182 31.06C9.25404 31.3759 15.289 31.3759 21.3241 31.06C22.1538 31.0168 22.8828 30.5768 23.3159 29.9199C23.4188 28.4099 23.4164 26.9 23.309 25.3901C23.2653 25.9996 23.205 26.6092 23.1264 27.2186Z" fill="#D54653"/>
<path d="M15.1702 31.2023C13.4397 31.297 11.7093 31.297 9.97887 31.2023C9.22153 31.1609 8.61778 30.5614 8.55685 29.8055C8.47324 28.7679 8.47324 27.7302 8.55685 26.6925C8.61778 25.9366 9.22153 25.3371 9.97881 25.2957C11.7093 25.2011 13.4396 25.2011 15.1701 25.2957C15.9274 25.3371 16.5312 25.9366 16.592 26.6925C16.6756 27.7302 16.6756 28.7679 16.592 29.8055C16.5312 30.5614 15.9275 31.1609 15.1702 31.2023Z" fill="#FFD064"/>
<path d="M12.5747 29.3607C11.8666 29.3607 11.15 29.3438 10.4395 29.3106C10.3965 28.6048 10.3965 27.8934 10.4395 27.1876C11.15 27.1544 11.8666 27.1375 12.5747 27.1375C13.2827 27.1375 13.9993 27.1544 14.7098 27.1876C14.7528 27.8934 14.7528 28.6048 14.7098 29.3106C13.9993 29.3438 13.2827 29.3607 12.5747 29.3607Z" fill="#DB5B6F"/>
<path d="M34.6504 16.8632C33.5534 14.8582 32.4628 13.5625 32.07 13.1239V10.1646L37.1663 5.97993C37.2876 5.88023 37.3595 5.73258 37.3629 5.57553C37.3663 5.41848 37.3009 5.26781 37.184 5.16301L33.328 1.70685C33.1066 1.50845 32.7663 1.52711 32.5678 1.74841C32.3693 1.96977 32.388 2.31015 32.6093 2.50862L35.9981 5.54602L32.0702 8.77128V6.56967C32.0702 6.27236 31.8292 6.03132 31.5319 6.03132C31.2345 6.03132 30.9935 6.27236 30.9935 6.56967L30.9932 12.8788C27.1494 13.5009 23.2591 13.5009 19.4153 12.8787V6.56967C19.4153 6.27236 19.1743 6.03133 18.8769 6.03133C18.5795 6.03133 18.3386 6.27236 18.3386 6.56967V8.77149L14.4104 5.54602L18.6011 1.78932C19.2176 1.23648 20.0138 1.00671 20.7799 1.09773C20.9377 1.77547 21.3 3.19705 21.8565 4.61325C22.7708 6.94041 23.8373 8.33163 25.0262 8.74816C25.0839 8.76833 25.144 8.77846 25.2042 8.77846C25.2643 8.77846 25.3245 8.76833 25.3821 8.74816C26.5711 8.33163 27.6376 6.94041 28.5522 4.61333C29.1077 3.19978 29.4696 1.78193 29.628 1.10254C30.1023 1.04583 30.5921 1.10928 31.0475 1.30424C31.321 1.42131 31.6373 1.29447 31.7543 1.02121C31.8714 0.747876 31.7446 0.431473 31.4714 0.314473C30.0884 -0.277633 28.4761 -0.00566256 27.3634 1.00707L26.8667 1.45928C25.9188 2.32235 24.4899 2.32235 23.5424 1.45928L23.0457 1.00707C21.5788 -0.32831 19.359 -0.336563 17.8823 0.987761L13.2244 5.16316C13.1074 5.26795 13.0421 5.41869 13.0456 5.57567C13.0489 5.73272 13.1208 5.88037 13.2421 5.98008L18.3384 10.1647V13.1236C17.9855 13.5164 17.0785 14.589 16.1118 16.2337C15.2931 15.7975 14.4272 15.3667 13.5501 14.9306C12.7837 14.5495 12.0117 14.1656 11.2706 13.7758C11.9949 12.8689 12.5535 11.8423 12.7984 10.6388C13.1725 8.79956 12.6252 7.15668 11.297 6.13131C10.0377 5.15928 8.30363 4.94257 6.98167 5.59211C6.27307 5.94023 5.08433 6.84379 5.08433 8.9831C5.08433 10.3373 5.94432 11.6175 7.7136 12.8969C8.26702 13.297 8.8892 13.6846 9.55144 14.0628C8.73043 14.8704 7.78818 15.5892 6.89805 16.2681C4.98162 17.7298 3.16338 19.1177 3.11636 20.9877C1.94392 21.2688 1.03929 22.2465 0.881807 23.478C0.523773 26.2817 0.523773 29.1248 0.881807 31.9287C1.06269 33.3424 2.22874 34.4228 3.65456 34.4975C6.51338 34.6466 9.3923 34.7211 12.2713 34.7211C15.1502 34.7211 18.0293 34.6465 20.8882 34.4975C22.3144 34.4227 23.4801 33.3422 23.6601 31.9287C23.7674 31.0904 23.8418 30.2486 23.8849 29.4054C24.3229 29.4186 24.7646 29.4256 25.2042 29.4256C32.2321 29.4256 36.8173 27.7812 37.0091 27.7112C37.2215 27.6336 37.3629 27.4316 37.3629 27.2055C37.363 22.7551 35.8879 19.1249 34.6504 16.8632ZM22.8176 2.25502C24.1779 3.49458 26.2305 3.49458 27.5917 2.25517L28.0884 1.80303C28.1893 1.71115 28.2961 1.62782 28.4074 1.55302C28.2204 2.26622 27.9336 3.24421 27.5503 4.21933C26.653 6.50284 25.8057 7.35852 25.2044 7.65647C24.6032 7.35852 23.7559 6.50284 22.8587 4.21933C22.4756 3.24407 22.1887 2.26543 22.0017 1.55195C22.1125 1.62681 22.2193 1.71036 22.3211 1.80296L22.8176 2.25502ZM6.16131 8.98281C6.16131 7.81295 6.60921 6.9745 7.45671 6.55811C7.81115 6.38398 8.2162 6.29949 8.63309 6.29949C9.32978 6.29949 10.0593 6.53557 10.6393 6.98326C11.2217 7.43274 12.1394 8.47748 11.7436 10.4238C11.5266 11.4907 10.9957 12.4189 10.3029 13.251C7.97617 11.9471 6.16131 10.5629 6.16131 8.98281ZM3.7107 21.9847C4.67031 21.9349 5.63029 21.8932 6.56399 21.8609C6.86116 21.8506 7.09365 21.6014 7.08331 21.3043C7.07298 21.007 6.8257 20.7755 6.52666 20.7849C5.76523 20.8112 4.98635 20.844 4.20454 20.8821C4.34321 19.5718 5.84268 18.427 7.55124 17.1239C8.55493 16.3583 9.62042 15.5456 10.5362 14.6046C11.3612 15.0442 12.2226 15.4726 13.0709 15.8944C13.9201 16.3167 14.7761 16.7424 15.588 17.1756C15.0547 18.1889 14.5302 19.3681 14.0961 20.6966C12.2851 20.6764 10.4771 20.6842 8.68262 20.7237C8.38531 20.7302 8.14966 20.9764 8.15619 21.2737C8.16273 21.571 8.40771 21.8091 8.70617 21.8001C12.7193 21.712 16.7992 21.7742 20.8324 21.9847C21.738 22.0316 22.4781 22.7168 22.5924 23.6142C22.668 24.205 22.7261 24.7977 22.7688 25.3914C22.7253 25.9872 22.6662 26.5786 22.5924 27.1508C22.4782 28.0475 21.7378 28.7323 20.8315 28.7794C19.6126 28.843 18.388 28.8926 17.1808 28.9289C17.2066 28.1687 17.1899 27.4053 17.1289 26.6494C17.0466 25.627 16.2172 24.8139 15.1998 24.7583C13.4578 24.663 11.6913 24.6629 9.94974 24.7583C8.93227 24.8139 8.10293 25.627 8.02053 26.6494C7.95916 27.411 7.94258 28.1803 7.96928 28.9463C6.55157 28.9086 5.12231 28.8533 3.7107 28.7794C2.8047 28.7324 2.06423 28.0476 1.9501 27.1506C1.87789 26.5851 1.81867 25.9956 1.77359 25.3978C1.81623 24.802 1.87437 24.2072 1.9501 23.6142C2.0648 22.717 2.80527 22.0316 3.7107 21.9847ZM16.5354 17.6979C18.2794 18.6959 19.6886 19.7399 20.1621 20.875C18.5208 20.7966 16.8734 20.7422 15.2265 20.7127C15.6146 19.5889 16.0713 18.5785 16.5354 17.6979ZM16.0557 29.7622C16.0164 30.2504 15.6231 30.6384 15.141 30.6648C13.4381 30.7579 11.7114 30.7579 10.0085 30.6648C9.52631 30.6384 9.13304 30.2504 9.0937 29.7622C9.01281 28.7582 9.01281 27.7399 9.0937 26.7359C9.13304 26.2477 9.52631 25.8597 10.0085 25.8333C10.8599 25.7867 11.7173 25.7634 12.5747 25.7634C13.4321 25.7634 14.2895 25.7867 15.141 25.8333C15.6231 25.8597 16.0164 26.2477 16.0557 26.7359C16.1366 27.7399 16.1366 28.7582 16.0557 29.7622ZM20.8323 33.422C15.1517 33.7182 9.39137 33.7182 3.71105 33.422C2.80549 33.3745 2.0648 32.689 1.9501 31.7919C1.83137 30.8621 1.75428 29.9278 1.71696 28.992C2.21841 29.4948 2.90009 29.8155 3.65471 29.8546C5.10903 29.9308 6.58236 29.9874 8.04271 30.0254C8.20055 30.9634 8.99163 31.6875 9.94967 31.7399C10.8206 31.7876 11.6977 31.8114 12.5747 31.8114C13.4517 31.8114 14.3288 31.7876 15.1997 31.7399C16.1636 31.6871 16.9583 30.9545 17.1093 30.0082C18.3579 29.9715 19.6258 29.9206 20.8874 29.8546C21.6424 29.8155 22.3244 29.4946 22.8259 28.9917C22.7885 29.9275 22.7113 30.8621 22.5923 31.7921C22.4781 32.6891 21.7378 33.3745 20.8323 33.422ZM34.5195 27.2996C34.4087 25.6812 34.2041 24.0687 33.9091 22.4972C33.8542 22.205 33.5731 22.0127 33.2806 22.0674C32.9884 22.1223 32.796 22.4036 32.8509 22.6959C33.148 24.2787 33.3502 25.9045 33.4553 27.5354C33.0407 27.6203 32.5707 27.7086 32.0505 27.7944C31.9854 25.6294 31.7544 23.4737 31.3612 21.3773C31.3063 21.0851 31.025 20.8928 30.7328 20.9474C30.4406 21.0022 30.2482 21.2835 30.303 21.5757C30.6937 23.6593 30.9205 25.8034 30.9784 27.9563C29.3732 28.1766 27.4129 28.3488 25.2042 28.3488C24.7772 28.3488 24.3482 28.342 23.9227 28.3293C23.9531 26.7091 23.8661 25.087 23.6603 23.4781C23.4988 22.2104 22.5453 21.2118 21.3224 20.965C20.9272 19.3199 19.2382 17.9985 17.0613 16.7561C17.9217 15.2998 18.7267 14.3174 19.0782 13.9144C21.1115 14.2528 23.158 14.4225 25.2045 14.4225C27.2509 14.4225 29.2972 14.2528 31.3305 13.9145C31.7345 14.3764 32.7345 15.5978 33.7234 17.4125C34.8565 19.4916 36.2005 22.7872 36.2822 26.8184C35.9321 26.9289 35.3317 27.1057 34.5195 27.2996Z" fill="black"/>
<path d="M14.7349 26.6498C14.0158 26.6161 13.2891 26.5991 12.5746 26.5991C11.8601 26.5991 11.1333 26.6161 10.4142 26.6498C10.1396 26.6627 9.91879 26.8804 9.90202 27.1548C9.85786 27.8808 9.85786 28.6172 9.90202 29.3432C9.91872 29.6177 10.1396 29.8354 10.4142 29.8483C11.1327 29.8818 11.8596 29.8989 12.5746 29.8989C13.2895 29.8989 14.0164 29.8819 14.7349 29.8483C15.0095 29.8354 15.2303 29.6177 15.2471 29.3432C15.2913 28.6172 15.2913 27.8809 15.2471 27.1548C15.2304 26.8805 15.0096 26.6627 14.7349 26.6498ZM14.1949 28.793C13.1128 28.8318 12.0363 28.8318 10.9544 28.793C10.9428 28.4308 10.9428 28.0673 10.9544 27.7051C12.037 27.6662 13.1123 27.6662 14.1949 27.7051C14.2064 28.0673 14.2064 28.4308 14.1949 28.793Z" fill="black"/>
</svg>
