<svg width="30" height="29" viewBox="0 0 30 29" fill="none" xmlns="http://www.w3.org/2000/svg">
<path d="M21.75 0C21.7289 0 21.7008 0 21.6797 0C18.8883 0 16.4203 1.47656 15 3.65625C13.5797 1.47656 11.1117 0 8.32031 0C8.29922 0 8.27109 0 8.25 0C3.89766 0.0421875 0.375 3.57891 0.375 7.94531C0.375 10.5469 1.51406 14.2383 3.73594 17.2758C7.96875 23.0625 15 28.125 15 28.125C15 28.125 22.0312 23.0625 26.2641 17.2758C28.4859 14.2383 29.625 10.5469 29.625 7.94531C29.625 3.57891 26.1023 0.0421875 21.75 0ZM24.675 16.1156C21.6797 20.2148 17.1164 23.9977 15 25.65C12.8836 23.9977 8.32031 20.2078 5.325 16.1086C3.26484 13.2961 2.34375 9.98438 2.34375 7.94531C2.34375 6.35625 2.9625 4.86563 4.07344 3.74062C5.19141 2.61562 6.675 1.98984 8.26406 1.97578C8.26406 1.97578 8.26406 1.97578 8.27109 1.97578C8.28516 1.97578 8.29922 1.97578 8.31328 1.97578H8.32734C9.33281 1.97578 10.3313 2.23594 11.2172 2.73516C12.075 3.22031 12.8203 3.90938 13.3547 4.73906C13.7203 5.29453 14.3391 5.63203 15.007 5.63203C15.675 5.63203 16.2938 5.29453 16.6594 4.73906C17.2008 3.90938 17.9391 3.22031 18.7969 2.73516C19.6828 2.23594 20.6813 1.97578 21.6867 1.97578H21.7008C21.7148 1.97578 21.7289 1.97578 21.743 1.97578C21.743 1.97578 21.743 1.97578 21.75 1.97578C23.332 1.98984 24.8227 2.61563 25.9406 3.74063C27.0586 4.86563 27.6703 6.36328 27.6703 7.94531C27.6562 9.98438 26.7352 13.2961 24.675 16.1156Z" fill="white"/>
</svg>
