<svg width="42" height="42" viewBox="0 0 42 42" fill="none" xmlns="http://www.w3.org/2000/svg">
<path fill-rule="evenodd" clip-rule="evenodd" d="M20.6967 0.808502C17.6532 0.808502 15.1597 3.29992 15.1597 6.3459V7.79668C18.1986 3.39605 20.6347 7.78067 26.2336 7.79668V6.3459C26.2336 3.29992 23.7425 0.808502 20.6967 0.808502Z" fill="#FFCD69"/>
<path fill-rule="evenodd" clip-rule="evenodd" d="M26.2336 7.79677C20.6347 7.78076 18.1985 3.39614 15.1597 7.79677V9.76556C15.1597 11.0216 16.0236 12.234 17.142 13.137C18.2788 14.0607 19.6813 14.6612 20.6967 14.6612C21.7142 14.6612 23.1145 14.0608 24.2535 13.137C25.3696 12.234 26.2336 11.0216 26.2336 9.76556L26.2336 7.79677Z" fill="#FFDCD5"/>
<path fill-rule="evenodd" clip-rule="evenodd" d="M17.142 13.1371L15.1597 15.1632L18.7853 18.5072L20.6966 14.6613C19.6814 14.6613 18.2788 14.0608 17.142 13.1371Z" fill="#EBDDD9"/>
<path fill-rule="evenodd" clip-rule="evenodd" d="M18.7854 18.5072L15.1598 15.1632C11.9673 16.6415 11.4678 18.6814 11.4678 23.6687H29.9259C29.9259 18.6813 29.4263 16.6414 26.2338 15.1632L22.6082 18.5072L20.6968 14.6613L18.7854 18.5072Z" fill="#FF7B79"/>
<path fill-rule="evenodd" clip-rule="evenodd" d="M24.2536 13.1371C23.1146 14.0607 21.7144 14.6613 20.6968 14.6613L22.6082 18.5072L26.2337 15.1632L24.2536 13.1371Z" fill="#EBDDD9"/>
<path fill-rule="evenodd" clip-rule="evenodd" d="M11.4678 23.6687H3.35479H2.14243C1.5924 23.6687 1.1157 24.0057 0.914062 24.4847V26.9142C1.1157 27.3932 1.5924 27.7301 2.14243 27.7301H3.7605H37.6354H39.2534C39.9868 27.7301 40.5872 27.1319 40.5872 26.3962V25.0027C40.5872 24.2693 39.9867 23.6687 39.2534 23.6687H38.0388H29.9259L11.4678 23.6687Z" fill="#FFCD69"/>
<path fill-rule="evenodd" clip-rule="evenodd" d="M37.6354 27.7301H3.7605L6.85215 39.8318C6.95071 40.2215 7.06301 40.4254 7.42054 40.4254H33.9755C34.333 40.4254 34.4431 40.2215 34.5439 39.8318L37.6354 27.7301ZM11.9055 35.4931V32.6625C11.9055 32.0964 12.3684 31.6335 12.9368 31.6335H28.4591C29.0252 31.6335 29.4905 32.0964 29.4905 32.6625V35.4931C29.4905 36.0615 29.0253 36.5245 28.4591 36.5245H12.9368C12.3684 36.5244 11.9055 36.0615 11.9055 35.4931Z" fill="#FFE6B4"/>
<path fill-rule="evenodd" clip-rule="evenodd" d="M28.4588 31.6334H12.9366C12.3682 31.6334 11.9053 32.0963 11.9053 32.6624V35.493C11.9053 36.0614 12.3682 36.5245 12.9366 36.5245H28.4589C29.025 36.5245 29.4902 36.0615 29.4902 35.493V32.6624C29.4902 32.0963 29.025 31.6334 28.4588 31.6334Z" fill="#EBDDD9"/>
<path fill-rule="evenodd" clip-rule="evenodd" d="M6.20112 13.2105L5.44711 14.109C4.81 14.8722 4.91083 16.0182 5.67171 16.6576C6.43486 17.2971 7.58303 17.1962 8.22021 16.433L8.97423 15.5345C9.61368 14.7736 9.51278 13.6253 8.74962 12.9859C7.98639 12.3463 6.84049 12.4472 6.20112 13.2105Z" fill="#EBDDD9"/>
<path fill-rule="evenodd" clip-rule="evenodd" d="M32.6437 12.9858C31.8828 13.6252 31.782 14.7735 32.4214 15.5344L33.1731 16.4329C33.8125 17.1962 34.9584 17.297 35.7215 16.6575C36.4847 16.0181 36.5855 14.8721 35.9461 14.1089L35.1921 13.2104C34.5551 12.4472 33.4069 12.3463 32.6437 12.9858Z" fill="#EBDDD9"/>
<path d="M11.0969 32.6624V35.493C11.0969 36.5075 11.9223 37.333 12.9368 37.333H28.459C29.4735 37.333 30.2988 36.5075 30.2988 35.493V32.6624C30.2988 31.6493 29.4735 30.8248 28.459 30.8248H12.9368C11.9223 30.8249 11.0969 31.6493 11.0969 32.6624ZM28.6818 32.6624V35.493C28.6818 35.6139 28.5798 35.716 28.459 35.716H12.9368C12.8139 35.716 12.7139 35.616 12.7139 35.493V32.6624C12.7139 32.5429 12.816 32.4418 12.9368 32.4418H28.459C28.5798 32.4419 28.6818 32.5429 28.6818 32.6624Z" fill="black"/>
<path d="M39.2533 22.8603H38.8472V19.424C38.8472 19.4223 38.8472 19.4209 38.8472 19.4192C38.8472 19.4182 38.8472 19.4171 38.8472 19.416C38.847 19.3414 38.8431 19.301 38.8346 19.285C38.8111 19.1494 38.7533 19.018 38.6586 18.9049L36.7782 16.6597C37.3626 15.7244 37.3118 14.4797 36.5657 13.5891L35.813 12.6923C35.3667 12.1578 34.7368 11.8291 34.0392 11.7669C33.3398 11.7046 32.6601 11.9174 32.1245 12.3661C32.1243 12.3663 32.124 12.3665 32.1237 12.3669C31.0183 13.2958 30.8744 14.95 31.8015 16.0533L32.5535 16.9522C33.0015 17.4868 33.6325 17.8152 34.3302 17.8767C34.4091 17.8836 34.4875 17.8871 34.5656 17.8871C34.9029 17.8871 35.2321 17.8226 35.5392 17.6988L37.2303 19.7179V22.8603H30.7285C30.6638 18.3195 29.9805 16.0638 26.713 14.4969L25.4155 13.1692C26.3714 12.2045 27.0423 11.0167 27.0423 9.76565V7.79677V6.3459C27.0422 2.84676 24.1956 0 20.6966 0C17.1976 0 14.3512 2.84676 14.3512 6.3459V7.79669V9.76557C14.3512 11.0171 15.0225 12.2051 15.9789 13.17L14.6807 14.4966C11.4129 16.0636 10.7296 18.3193 10.665 22.8603H4.16317V19.7178L5.85425 17.6987C6.1614 17.8225 6.49079 17.887 6.82826 17.887C6.90741 17.887 6.98697 17.8835 7.06677 17.8764C7.76451 17.8142 8.3945 17.4856 8.83942 16.9526L9.59295 16.0546C10.0411 15.5213 10.2543 14.8432 10.1933 14.1452C10.1321 13.4461 9.80381 12.8144 9.26874 12.3661C8.73407 11.9181 8.05533 11.7053 7.35783 11.7667C6.66009 11.8282 6.02913 12.1565 5.58162 12.6907L4.82623 13.5908C4.08378 14.4803 4.03341 15.7237 4.61594 16.6588L2.7347 18.9049C2.62054 19.0413 2.55982 19.2043 2.54866 19.369C2.54745 19.3815 2.54664 19.3954 2.54632 19.4109C2.54624 19.4141 2.54607 19.4174 2.54607 19.4206C2.54607 19.4218 2.54599 19.4228 2.54599 19.4241V22.8603H2.14214C0.961074 22.8603 0 23.8213 0 25.0026V26.3962C0 27.5775 0.961074 28.5386 2.1423 28.5386H3.1324L6.0681 40.0301C6.14337 40.3278 6.37258 41.2339 7.42033 41.2339H33.9752C35.0159 41.2339 35.2496 40.3311 35.327 40.032L38.2631 28.5387H39.2533C40.4346 28.5387 41.3956 27.5776 41.3956 26.3963V25.0027C41.3956 23.8213 40.4346 22.8603 39.2533 22.8603ZM35.2023 16.0378C34.9986 16.2085 34.7397 16.2893 34.472 16.2658C34.2046 16.2423 33.9634 16.1172 33.7932 15.914L33.0403 15.0142C32.6858 14.5924 32.7411 13.9602 33.1636 13.6049C33.3674 13.4343 33.6273 13.3532 33.8954 13.3774C34.1623 13.4012 34.4024 13.5259 34.5728 13.73L35.3263 14.6279C35.6809 15.0511 35.6252 15.6835 35.2023 16.0378ZM6.0664 14.6287L6.8209 13.7297C6.99133 13.5261 7.23251 13.4011 7.4998 13.3776C7.5302 13.3749 7.56044 13.3735 7.59052 13.3735C7.82539 13.3735 8.04975 13.4544 8.23021 13.6056C8.43395 13.7762 8.55895 14.0179 8.5824 14.2861C8.60576 14.5535 8.52507 14.8121 8.35472 15.0148L7.59941 15.9149C7.43035 16.1175 7.19015 16.2421 6.92326 16.2659C6.65483 16.2902 6.3949 16.2088 6.1918 16.0387C5.76984 15.6839 5.71413 15.0506 6.0664 14.6287ZM20.6966 1.61702C23.3039 1.61702 25.4251 3.73838 25.4251 6.3459V6.95261C23.8071 6.81475 22.4733 6.30224 21.277 5.8426C20.2035 5.43002 19.1574 5.02803 18.123 5.02803C17.4146 5.02803 16.7117 5.21666 16.0094 5.71955C16.3168 3.40697 18.3016 1.61702 20.6966 1.61702ZM15.9682 9.76557V8.05476C17.4084 6.08831 18.4654 6.49442 20.697 7.35201C21.9683 7.84051 23.5134 8.43363 25.4251 8.57407V9.76565C25.4251 11.7519 22.3502 13.8528 20.6966 13.8528C19.043 13.8527 15.9682 11.7519 15.9682 9.76557ZM25.0737 15.1331L22.8522 17.182L21.9088 15.2838C22.6458 15.0754 23.4335 14.7003 24.165 14.2034L25.0737 15.1331ZM19.4844 15.2837L18.541 17.1819L16.3199 15.1333L17.2292 14.204C17.9605 14.7006 18.7478 15.0754 19.4844 15.2837ZM15.0199 16.1342L18.2371 19.1015C18.3877 19.2405 18.584 19.3157 18.7853 19.3157C18.834 19.3157 18.8831 19.3112 18.9319 19.3023C19.1822 19.2562 19.3961 19.0949 19.5094 18.8669L20.6967 16.4779L21.8841 18.8669C21.9972 19.0949 22.2113 19.2561 22.4616 19.3023C22.7121 19.3484 22.9692 19.2739 23.1563 19.1015L26.3735 16.1342C28.4594 17.2427 29.0495 18.7072 29.1116 22.8603H12.282C12.3441 18.7072 12.9341 17.2427 15.0199 16.1342ZM39.7786 26.3962C39.7786 26.6859 39.543 26.9216 39.2533 26.9216H24.3245C23.8781 26.9216 23.516 27.2836 23.516 27.7301C23.516 28.1765 23.8781 28.5386 24.3245 28.5386H36.5942L33.7641 39.6169L7.63151 39.6168L4.80132 28.5387H17.0619C17.5083 28.5387 17.8704 28.1766 17.8704 27.7301C17.8704 27.2837 17.5083 26.9216 17.0619 26.9216H2.1423C1.85762 26.9216 1.61701 26.681 1.61701 26.3963V25.0027C1.61701 24.718 1.85762 24.4774 2.1423 24.4774H39.2533C39.538 24.4774 39.7786 24.718 39.7786 25.0027V26.3962Z" fill="black"/>
<path d="M20.6943 28.5386H20.6966C21.1431 28.5386 21.504 28.1766 21.504 27.7301C21.504 27.2837 21.1408 26.9216 20.6943 26.9216C20.2477 26.9216 19.8857 27.2837 19.8857 27.7301C19.8857 28.1766 20.2479 28.5386 20.6943 28.5386Z" fill="black"/>
</svg>
