<svg width="33" height="38" viewBox="0 0 33 38" fill="none" xmlns="http://www.w3.org/2000/svg">
<path d="M26.4523 9.00565C26.3511 8.83047 26.1642 8.7225 25.9618 8.7225H16.4735H6.9853C6.78296 8.7225 6.59602 8.83047 6.49484 9.00565L1.87367 17.0098C1.80032 17.1369 1.81674 17.2967 1.91448 17.4062L16.2053 33.412C16.3404 33.5634 16.5771 33.5634 16.7123 33.4123L31.0322 17.4062C31.1302 17.2967 31.1467 17.1367 31.0732 17.0095L26.4523 9.00565Z" fill="#A4F22F"/>
<path d="M1.83141 17.2227H11.566L6.70215 8.79834C6.65981 8.82278 6.62061 8.85271 6.58572 8.88747C6.55083 8.92221 6.52017 8.96184 6.49484 9.00565L1.87367 17.0098C1.83557 17.0758 1.82221 17.1507 1.83141 17.2227Z" fill="#F9F5F5"/>
<path d="M16.5879 33.4996C16.634 33.4808 16.6769 33.4522 16.7126 33.4123L31.0325 17.4063C31.1305 17.2968 31.147 17.1368 31.0735 17.0096L26.4525 9.00572C26.3513 8.83054 26.1644 8.72258 25.9621 8.72258H22.3765L27.2841 17.2228L16.5879 33.4996Z" fill="#CEAF07"/>
<path d="M31.1158 17.2227C31.125 17.1505 31.1117 17.0756 31.0735 17.0095L26.4525 9.00557C26.4272 8.96178 26.3965 8.92214 26.3616 8.88739C26.3267 8.85265 26.2875 8.82272 26.2452 8.79826L21.3813 17.2226L31.1158 17.2227Z" fill="#F9F5F5"/>
<path d="M26.4523 9.00565C26.427 8.96184 26.3964 8.92221 26.3615 8.88747C26.3265 8.85271 26.2873 8.82278 26.245 8.79834L24.3325 12.1108L27.2838 17.2227H31.1155C31.1248 17.1505 31.1114 17.0756 31.0733 17.0095L26.4523 9.00565Z" fill="#EEDFDA"/>
<path d="M19.433 15.8336H13.5141L11.5659 17.2228L16.333 33.5005C16.4139 33.5327 16.5043 33.5328 16.5851 33.5004L21.3811 17.2228L19.433 15.8336Z" fill="#EEDFDA"/>
<path d="M16.4735 8.7225L11.5659 17.2228H21.3811L16.4735 8.7225Z" fill="#F9F5F5"/>
<path d="M26.3702 28.3544L26.5981 29.2853C26.9675 30.7943 28.0161 31.858 29.4369 32.4865C29.5714 32.5762 29.5714 32.7739 29.4369 32.8635C28.0161 33.492 26.9675 34.5558 26.5981 36.0647L26.3702 36.9957C26.3233 37.1872 26.0509 37.1872 26.004 36.9957L25.7762 36.0647C25.4067 34.5557 24.3581 33.492 22.9373 32.8635C22.8028 32.7739 22.8028 32.5762 22.9373 32.4865C24.3581 31.858 25.4067 30.7942 25.7762 29.2853L26.004 28.3544C26.0509 28.1628 26.3232 28.1628 26.3702 28.3544Z" fill="#FFC50D"/>
<path d="M27.285 32.4866C26.3846 32.0883 25.6345 31.5145 25.1112 30.7641C24.5879 31.5145 23.8377 32.0883 22.9373 32.4866C22.8028 32.5762 22.8028 32.7739 22.9373 32.8635C23.8377 33.2619 24.5879 33.8356 25.1112 34.5861C25.6345 33.8356 26.3846 33.2619 27.285 32.8635C27.4195 32.7739 27.4195 32.5762 27.285 32.4866Z" fill="#FFE541"/>
<path d="M30.4906 6.25337L30.6055 6.72273C30.7917 7.48349 31.3204 8.01977 32.0367 8.33672C32.1045 8.38191 32.1045 8.48155 32.0367 8.5268C31.3204 8.84367 30.7917 9.37997 30.6055 10.1408L30.4906 10.6101C30.4669 10.7067 30.3296 10.7067 30.306 10.6101L30.1911 10.1408C30.0048 9.38004 29.4762 8.84374 28.7598 8.5268C28.692 8.48162 28.692 8.38198 28.7598 8.33672C29.4762 8.01985 30.0048 7.48355 30.1911 6.72273L30.306 6.25337C30.3296 6.1568 30.4669 6.1568 30.4906 6.25337Z" fill="#FFC50D"/>
<path d="M30.9517 8.33665C30.4978 8.13585 30.1196 7.84657 29.8558 7.46823C29.5919 7.84656 29.2137 8.13585 28.7598 8.33665C28.692 8.38184 28.692 8.48148 28.7598 8.52673C29.2138 8.72753 29.592 9.01682 29.8558 9.39515C30.1196 9.01682 30.4978 8.72755 30.9517 8.52673C31.0195 8.48154 31.0195 8.38184 30.9517 8.33665Z" fill="#FFE541"/>
<path d="M3.6761 0.966195L3.8407 1.63848C4.10749 2.7283 4.86482 3.4965 5.89084 3.95038C5.98799 4.01513 5.98799 4.15783 5.89084 4.22265C4.86482 4.67661 4.10749 5.44481 3.8407 6.53455L3.6761 7.20683C3.64222 7.34516 3.4455 7.34516 3.41163 7.20683L3.24703 6.53455C2.98024 5.44473 2.22291 4.67653 1.19689 4.22265C1.09973 4.1579 1.09973 4.0152 1.19689 3.95038C2.22291 3.49642 2.98024 2.72822 3.24703 1.63848L3.41163 0.966195C3.4455 0.827797 3.64222 0.827797 3.6761 0.966195Z" fill="#FFC50D"/>
<path d="M4.3367 3.95037C3.68646 3.6627 3.14469 3.24837 2.7668 2.70639C2.38883 3.24837 1.84713 3.6627 1.19689 3.95037C1.09974 4.01512 1.09974 4.15789 1.19689 4.22264C1.84713 4.51031 2.3889 4.92464 2.7668 5.46662C3.14476 4.92464 3.68646 4.51031 4.3367 4.22264C4.43378 4.15789 4.43378 4.01512 4.3367 3.95037Z" fill="#FFE541"/>
<path d="M26.9273 8.73155C26.7288 8.38782 26.359 8.17432 25.9621 8.17432H6.98556C6.58861 8.17432 6.21881 8.38782 6.02042 8.73155L4.66614 11.0771C4.51475 11.3393 4.60461 11.6746 4.86681 11.826C5.12893 11.9774 5.46426 11.8875 5.61566 11.6253L6.65861 9.81889L10.6167 16.6744H2.70053L4.37401 13.7758C4.5254 13.5136 4.43555 13.1783 4.17335 13.027C3.91115 12.8754 3.57581 12.9654 3.42449 13.2276L1.39917 16.7356C1.20698 17.0684 1.2499 17.4846 1.50582 17.7713L15.7966 33.7772C15.9648 33.9656 16.2061 34.0737 16.4588 34.0738C16.7112 34.0738 16.9529 33.966 17.1212 33.7778L31.4411 17.7718C31.6976 17.4851 31.7407 17.0686 31.5483 16.7354L26.9273 8.73155ZM17.6303 16.6745H12.5157L16.4737 9.81889L20.4318 16.6745H20.3843C20.0815 16.6745 19.8361 16.92 19.8361 17.2227C19.8361 17.5255 20.0816 17.7709 20.3843 17.7709H20.6483L16.4605 31.9844L12.298 17.771H17.6303C17.9331 17.771 18.1785 17.5255 18.1785 17.2228C18.1786 16.92 17.9331 16.6745 17.6303 16.6745ZM21.3814 16.1263L17.4233 9.2707H25.3395L21.3814 16.1263ZM21.7914 17.771H29.9706L17.775 31.4026L21.7914 17.771ZM30.2471 16.6745H22.3309L26.289 9.81896L30.2471 16.6745ZM7.60813 9.2707H15.5243L11.5662 16.1263L7.60813 9.2707ZM11.1555 17.771L15.1482 31.4047L2.97535 17.771L11.1555 17.771Z" fill="#222222"/>
<path d="M29.7409 32.0304C29.7148 32.013 29.6873 31.9979 29.6586 31.9852C29.3106 31.8313 28.9896 31.6494 28.7047 31.4449C28.4587 31.2685 28.1161 31.3247 27.9396 31.5708C27.7631 31.8167 27.8194 32.1592 28.0653 32.3358C28.2325 32.4558 28.4092 32.569 28.5943 32.6748C27.4103 33.3504 26.5892 34.3182 26.187 35.5148C25.7849 34.3185 24.964 33.3506 23.7802 32.6751C24.9641 31.9995 25.7851 31.0317 26.1871 29.8351C26.1927 29.8516 26.1984 29.868 26.204 29.8845C26.3035 30.1704 26.616 30.3214 26.902 30.222C27.188 30.1224 27.339 29.8099 27.2395 29.5239C27.1978 29.4044 27.1613 29.2802 27.1305 29.155L26.9026 28.224C26.8217 27.8934 26.5274 27.6625 26.187 27.6625C25.8467 27.6625 25.5524 27.8934 25.4714 28.2241L25.2436 29.155C24.8552 30.7417 23.6543 31.5699 22.7154 31.9853C22.6867 31.998 22.6592 32.0131 22.6331 32.0305C22.417 32.1746 22.2881 32.4155 22.2881 32.6752C22.2881 32.9348 22.4171 33.1758 22.6331 33.3198C22.6591 33.3372 22.6866 33.3523 22.7154 33.3651C23.6543 33.7804 24.8551 34.6086 25.2436 36.1953L25.4715 37.1263C25.5524 37.4569 25.8467 37.6878 26.187 37.6878C26.5274 37.6878 26.8217 37.4569 26.9026 37.1263L27.1305 36.1953C27.5189 34.6086 28.7197 33.7805 29.6587 33.3651C29.6873 33.3523 29.7148 33.3372 29.741 33.3199C29.957 33.1759 30.086 32.9349 30.086 32.6752C30.086 32.4154 29.957 32.1744 29.7409 32.0304Z" fill="#222222"/>
<path d="M32.3407 7.88058C32.3146 7.86314 32.287 7.84803 32.2583 7.83532C31.6509 7.56663 31.2739 7.14844 31.1378 6.59237L31.0229 6.12301C30.9522 5.83439 30.6953 5.63269 30.3982 5.63269C30.101 5.63277 29.844 5.83446 29.7734 6.12301L29.6585 6.59237C29.5224 7.14844 29.1454 7.56663 28.538 7.83532C28.5093 7.84803 28.4817 7.86314 28.4556 7.88058C28.2709 8.00372 28.1606 8.20986 28.1606 8.43183C28.1606 8.65382 28.271 8.85989 28.4558 8.98296C28.4818 9.00032 28.5093 9.01543 28.538 9.02814C29.1454 9.29683 29.5224 9.71502 29.6585 10.2712L29.7734 10.7404C29.8441 11.0291 30.1009 11.2307 30.3981 11.2308C30.6953 11.2308 30.9523 11.0292 31.023 10.7405L31.1379 10.2712C31.274 9.7151 31.6511 9.29691 32.2585 9.02821C32.287 9.0155 32.3146 9.00047 32.3406 8.98302C32.5254 8.85995 32.6357 8.65388 32.6358 8.43192C32.6357 8.20979 32.5254 8.00372 32.3407 7.88058ZM30.3981 9.22033C30.2152 8.91937 29.9741 8.65491 29.679 8.43176C29.9742 8.20862 30.2152 7.94415 30.3982 7.6432C30.5811 7.94415 30.8222 8.20862 31.1172 8.43176C30.8221 8.65491 30.581 8.9193 30.3981 9.22033Z" fill="#222222"/>
<path d="M2.71444 6.66492L2.87904 7.33721C2.95422 7.6443 3.22759 7.85883 3.54374 7.85883C3.85995 7.85883 4.13331 7.6443 4.20842 7.33721L4.37303 6.66492C4.63888 5.5792 5.46569 5.0102 6.11258 4.72399C6.14126 4.71128 6.16878 4.69617 6.19484 4.67873C6.39331 4.54646 6.51179 4.32507 6.51179 4.08659C6.51179 3.84804 6.39339 3.62665 6.19492 3.49431C6.16878 3.47687 6.14126 3.46176 6.1125 3.44905C5.46569 3.16291 4.63888 2.59392 4.37303 1.50819L4.20842 0.835904C4.13324 0.528741 3.85987 0.314209 3.54366 0.314209C3.22752 0.314209 2.95415 0.528741 2.87897 0.835831L2.71437 1.50812C2.44866 2.59384 1.62177 3.16284 0.974964 3.44898C0.946281 3.46168 0.918686 3.47679 0.892628 3.49424C0.69408 3.62665 0.575684 3.84804 0.575684 4.08659C0.575684 4.32514 0.694225 4.54653 0.8927 4.6788C0.918758 4.69617 0.946281 4.71128 0.974892 4.72399C1.62177 5.01013 2.44866 5.57919 2.71444 6.66492ZM3.54366 2.45026C3.84579 3.1116 4.33376 3.66446 4.98816 4.08652C4.33383 4.50858 3.84579 5.06151 3.54366 5.72285C3.24154 5.06151 2.75349 4.50865 2.09916 4.08652C2.75349 3.66446 3.24154 3.11152 3.54366 2.45026Z" fill="#222222"/>
</svg>
