<svg width="17" height="19" viewBox="0 0 17 19" fill="none" xmlns="http://www.w3.org/2000/svg">
<path d="M14.3333 2.66697H10.85C10.5 1.7003 9.5833 1.00031 8.5 1.00031C7.41667 1.00031 6.5 1.7003 6.15 2.66697H2.66667C1.75 2.66697 1 3.41697 1 4.33364V16.0003C1 16.917 1.75 17.667 2.66667 17.667H14.3333C15.25 17.667 16 16.917 16 16.0003V4.33364C16 3.41697 15.25 2.66697 14.3333 2.66697ZM8.5 2.66697C8.9583 2.66697 9.3333 3.04197 9.3333 3.5003C9.3333 3.95864 8.9583 4.33364 8.5 4.33364C8.04167 4.33364 7.66667 3.95864 7.66667 3.5003C7.66667 3.04197 8.04167 2.66697 8.5 2.66697ZM10.1667 14.3336H4.33333V12.667H10.1667V14.3336ZM12.6667 11.0003H4.33333V9.33364H12.6667V11.0003ZM12.6667 7.66697H4.33333V6.0003H12.6667V7.66697Z" stroke="#232323"/>
</svg>
