<svg width="6" height="8" viewBox="0 0 6 8" fill="none" xmlns="http://www.w3.org/2000/svg">
<path d="M5.32409 2.24298V2.7716C5.32409 2.81997 5.30854 2.8597 5.27744 2.8908C5.24635 2.9219 5.20661 2.93744 5.15824 2.93744H4.28757C4.20811 3.43497 3.98526 3.83921 3.61903 4.15016C3.2528 4.46111 2.776 4.65113 2.18865 4.72024C2.76565 5.33523 3.55858 6.26118 4.56744 7.49809C4.61581 7.55337 4.62272 7.6121 4.58817 7.6743C4.56054 7.73649 4.51045 7.76759 4.43789 7.76759H3.42728C3.372 7.76759 3.32881 7.74686 3.29772 7.7054C2.24048 6.4374 1.38018 5.45099 0.716819 4.74616C0.685717 4.71506 0.670166 4.67706 0.670166 4.63215V3.97397C0.670166 3.92905 0.686582 3.89018 0.719413 3.85736C0.752245 3.82454 0.79111 3.80813 0.83601 3.80812H1.41646C1.87253 3.80812 2.23963 3.73384 2.51776 3.58528C2.79589 3.43671 2.97296 3.22077 3.04896 2.93745H0.83601C0.78764 2.93745 0.747907 2.92191 0.71681 2.89081C0.685715 2.85971 0.670166 2.81998 0.670166 2.77161V2.24299C0.670166 2.19462 0.685715 2.15488 0.71681 2.12379C0.747907 2.09269 0.78764 2.07714 0.83601 2.07714H2.9764C2.77947 1.68673 2.3165 1.49152 1.58748 1.49152H0.83601C0.791092 1.49152 0.752224 1.4751 0.719404 1.44228C0.686585 1.40945 0.670173 1.37059 0.670166 1.32567V0.636395C0.670166 0.588024 0.685715 0.548291 0.71681 0.517195C0.747907 0.486099 0.78764 0.470551 0.836011 0.470551H5.1479C5.19627 0.470551 5.23601 0.486099 5.2671 0.517195C5.29819 0.548291 5.31373 0.588024 5.31374 0.636395V1.16502C5.31374 1.21339 5.29819 1.25312 5.2671 1.28422C5.236 1.31531 5.19627 1.33086 5.1479 1.33086H3.94036C4.10275 1.54162 4.2133 1.79038 4.27204 2.07715H5.15825C5.20662 2.07715 5.24636 2.0927 5.27745 2.1238C5.30855 2.15489 5.32409 2.19461 5.32409 2.24298Z" fill="#242424"/>
</svg>
