<svg width="36" height="36" viewBox="0 0 36 36" fill="none" xmlns="http://www.w3.org/2000/svg">
<circle opacity="0.22" cx="18" cy="18" r="18" fill="white"/>
<path d="M26.4205 25.3145L22.3774 21.2409C23.3589 20.0105 23.9506 18.4515 23.9506 16.7562C23.9506 12.7881 20.7338 9.57141 16.7611 9.57141C12.7883 9.57141 9.57153 12.7928 9.57153 16.7609C9.57153 20.729 12.7883 23.9458 16.7611 23.9458C18.4798 23.9458 20.0529 23.3447 21.2927 22.3397L25.3029 26.3805C25.4531 26.5402 25.6598 26.62 25.8617 26.62C26.0542 26.62 26.2468 26.5496 26.3923 26.4087C26.7023 26.1129 26.7117 25.6245 26.4205 25.3145ZM16.7611 22.4008C15.2537 22.4008 13.8355 21.8138 12.7695 20.7478C11.7035 19.6818 11.1165 18.2636 11.1165 16.7609C11.1165 15.2535 11.7035 13.8353 12.7695 12.7741C13.8355 11.7081 15.2537 11.1211 16.7611 11.1211C18.2685 11.1211 19.6866 11.7081 20.7526 12.7741C21.8186 13.84 22.4056 15.2582 22.4056 16.7609C22.4056 18.2683 21.8186 19.6865 20.7526 20.7478C19.6866 21.8138 18.2685 22.4008 16.7611 22.4008Z" fill="white"/>
</svg>
