<svg width="25" height="25" viewBox="0 0 25 25" fill="none" xmlns="http://www.w3.org/2000/svg">
<path d="M15.4687 12.5C15.4687 14.1394 14.1396 15.4685 12.5002 15.4685C10.8608 15.4685 9.53174 14.1394 9.53174 12.5C9.53174 10.8606 10.8608 9.53155 12.5002 9.53155C14.1396 9.53155 15.4687 10.8606 15.4687 12.5Z" stroke="#1E1E1E" stroke-width="1.5" stroke-linecap="round" stroke-linejoin="round"/>
<path d="M19.8223 15.4685C19.5528 16.0791 19.6821 16.7922 20.1488 17.2693L20.2082 17.3287C20.5798 17.6999 20.7886 18.2036 20.7886 18.7288C20.7886 19.2541 20.5798 19.7577 20.2082 20.1289C19.837 20.5005 19.3333 20.7093 18.808 20.7093C18.2828 20.7093 17.7791 20.5005 17.4079 20.1289L17.3486 20.0696C16.8714 19.6029 16.1583 19.4736 15.5477 19.743C14.9496 19.9994 14.5608 20.5864 14.5582 21.2372V21.4054C14.5582 22.4983 13.6722 23.3843 12.5792 23.3843C11.4863 23.3843 10.6003 22.4983 10.6003 21.4054V21.3163C10.5846 20.6461 10.1608 20.0536 9.53161 19.8222C8.92101 19.5527 8.20786 19.682 7.73075 20.1487L7.67138 20.2081C7.30019 20.5797 6.79649 20.7885 6.27126 20.7885C5.74602 20.7885 5.24232 20.5797 4.87113 20.2081C4.49953 19.8369 4.29073 19.3332 4.29073 18.808C4.29073 18.2827 4.49953 17.779 4.87113 17.4079L4.9305 17.3485C5.39721 16.8714 5.52651 16.1582 5.25703 15.5476C5.00069 14.9495 4.41364 14.5607 3.76291 14.5581L3.59469 14.5581C2.50174 14.5581 1.61572 13.6721 1.61572 12.5792C1.61572 11.4862 2.50174 10.6002 3.5947 10.6002H3.68375C4.35396 10.5845 4.94647 10.1607 5.17787 9.53154C5.44736 8.92094 5.31805 8.2078 4.85134 7.73068L4.79197 7.67131C4.42037 7.30012 4.21157 6.79642 4.21157 6.27119C4.21157 5.74595 4.42037 5.24226 4.79197 4.87106C5.16317 4.49946 5.66686 4.29066 6.1921 4.29066C6.71733 4.29066 7.22103 4.49946 7.59222 4.87106L7.65159 4.93043C8.12871 5.39714 8.84185 5.52645 9.45245 5.25696H9.53161C10.1297 5.00062 10.5185 4.41357 10.5211 3.76284V3.59463C10.5211 2.50167 11.4071 1.61565 12.5001 1.61565C13.593 1.61565 14.479 2.50167 14.479 3.59463V3.68368C14.4816 4.33441 14.8704 4.92146 15.4685 5.1778C16.0791 5.44729 16.7923 5.31798 17.2694 4.85127L17.3288 4.7919C17.7 4.4203 18.2036 4.2115 18.7289 4.2115C19.2541 4.2115 19.7578 4.4203 20.129 4.7919C20.5006 5.1631 20.7094 5.66679 20.7094 6.19203C20.7094 6.71727 20.5006 7.22096 20.129 7.59215L20.0696 7.65152C19.6029 8.12864 19.4736 8.84178 19.7431 9.45238L19.7431 9.53154C19.9994 10.1297 20.5865 10.5184 21.2372 10.521H21.4054C22.4984 10.521 23.3844 11.407 23.3844 12.5C23.3844 13.593 22.4984 14.479 21.4054 14.479H21.3164C20.6657 14.4816 20.0786 14.8703 19.8223 15.4685Z" stroke="#1E1E1E" stroke-width="1.5" stroke-linecap="round" stroke-linejoin="round"/>
</svg>
