<svg width="27" height="30" viewBox="0 0 27 30" fill="none" xmlns="http://www.w3.org/2000/svg">
<path d="M25.6251 5.56944C25.6251 7.80159 23.8156 9.61111 21.5834 9.6111C19.3513 9.61111 17.5417 7.80159 17.5417 5.56944C17.5417 3.33729 19.3513 1.52777 21.5834 1.52777C23.8156 1.52777 25.6251 3.33729 25.6251 5.56944Z" stroke="white" stroke-width="2" stroke-linecap="round" stroke-linejoin="round"/>
<path d="M9.45833 15C9.45833 17.2321 7.64882 19.0416 5.41667 19.0416C3.18452 19.0416 1.375 17.2321 1.375 15C1.375 12.7678 3.18452 10.9583 5.41667 10.9583C7.64882 10.9583 9.45833 12.7678 9.45833 15Z" stroke="white" stroke-width="2" stroke-linecap="round" stroke-linejoin="round"/>
<path d="M25.6251 24.4306C25.6251 26.6627 23.8156 28.4722 21.5834 28.4722C19.3513 28.4722 17.5417 26.6627 17.5417 24.4306C17.5417 22.1984 19.3513 20.3889 21.5834 20.3889C23.8156 20.3889 25.6251 22.1984 25.6251 24.4306Z" stroke="white" stroke-width="2" stroke-linecap="round" stroke-linejoin="round"/>
<path d="M8.90601 17.0343L18.1075 22.3962" stroke="white" stroke-width="2" stroke-linecap="round" stroke-linejoin="round"/>
<path d="M18.0941 7.60376L8.90601 12.9657" stroke="white" stroke-width="2" stroke-linecap="round" stroke-linejoin="round"/>
</svg>
