<svg width="41" height="41" viewBox="0 0 41 41" fill="none" xmlns="http://www.w3.org/2000/svg">
<path d="M33.6865 35.3645L37.8815 39.5595C38.3447 40.0226 39.0963 40.0226 39.5595 39.5595C40.0226 39.0963 40.0226 38.3446 39.5595 37.8815L35.3645 33.6865H33.6865V35.3645Z" fill="#FF7A3C"/>
<path d="M32.0083 33.6865L33.6864 35.3645L35.3643 33.6865L33.6864 32.0085H32.0083V33.6865Z" fill="#FF372B"/>
<path d="M30.3303 32.0084L32.0083 33.6864L33.6864 32.0084L32.0083 30.3304H30.3303V32.0084Z" fill="#FFBA48"/>
<path d="M28.5024 31.3732L30.1804 29.6952L32.6974 32.2122L31.0194 33.8902L28.5024 31.3732Z" fill="#0AB84F"/>
<path d="M26.123 18.5721L21.928 22.7671L2.96616 3.80525L1.28818 5.48323C0.361346 6.41006 0.361899 7.91299 1.28818 8.8392L24.0379 31.589C24.9648 32.5158 26.4672 32.5158 27.3939 31.589L29.0719 29.911L29.479 21.9281L26.123 18.5721Z" fill="#FFBA48"/>
<path d="M8.83913 1.28824C7.91286 0.361961 6.40993 0.361407 5.48317 1.28824L2.96616 3.80525C2.03932 4.73209 2.03988 6.23502 2.96616 7.16122L20.2499 24.4451L26.1229 18.5721L8.83913 1.28824Z" fill="#FFD185"/>
<path d="M23.606 27.801L25.7159 29.9109C26.6427 30.8377 28.1451 30.8377 29.0718 29.9109L31.5888 27.3939C32.5157 26.4671 32.5157 24.9647 31.5888 24.0379L29.4789 21.9281L23.606 27.801Z" fill="#FFD185"/>
<path d="M6.81359 35.3645L2.6186 39.5595C2.15546 40.0226 1.40376 40.0226 0.940616 39.5595C0.477477 39.0963 0.477477 38.3446 0.940616 37.8815L5.13561 33.6865H6.81359V35.3645Z" fill="#FF7A3C"/>
<path d="M8.49154 33.6865L6.81356 35.3645L5.1355 33.6865L6.81356 32.0085H8.49154V33.6865Z" fill="#FF372B"/>
<path d="M10.1697 32.0084L8.4917 33.6864L6.81372 32.0084L8.4917 30.3304H10.1697V32.0084Z" fill="#FFBA48"/>
<path d="M9.53003 30.1844L12.047 27.6675L13.725 29.3454L11.208 31.8624L9.53003 30.1844Z" fill="#0AB84F"/>
<path d="M39.2117 5.48323L37.5337 3.80525L11.428 29.911L13.106 31.589C14.0328 32.5158 15.5352 32.5158 16.4619 31.589L39.2117 8.8392C40.138 7.913 40.1385 6.41006 39.2117 5.48323Z" fill="#FFD185"/>
<path d="M37.5339 3.80525L35.0169 1.28824C34.0901 0.361407 32.5872 0.361961 31.661 1.28824L8.91119 24.0379C7.98436 24.9648 7.98436 26.4671 8.91119 27.3939L11.4282 29.9109C12.355 30.8377 13.8574 30.8377 14.7842 29.9109L37.5339 7.16121C38.4602 6.23493 38.4608 4.73209 37.5339 3.80525Z" fill="#FFE8C2"/>
<circle cx="20.25" cy="3.55948" r="2.96631" fill="#FF372B"/>
<path d="M39.9789 37.4617L31.1694 28.6522L32.0084 27.8133C33.1649 26.6567 33.1649 24.7748 32.0084 23.6182L28.6401 20.25L39.6313 9.25884C40.7879 8.10229 40.7879 6.22039 39.6313 5.06384L35.4363 0.868849C34.876 0.308652 34.1311 7.62939e-05 33.3388 7.62939e-05C32.5464 7.62939e-05 31.8015 0.308652 31.2412 0.868849L12.699 19.4111L1.70788 8.41996C1.01392 7.72608 1.01392 6.59691 1.70788 5.90303L5.90288 1.70804C6.23898 1.37193 6.6859 1.18676 7.1613 1.18676C7.6367 1.18676 8.08363 1.37193 8.41973 1.70812L18.1527 11.4407C18.3843 11.6723 18.76 11.6722 18.9917 11.4406C19.2233 11.2089 19.2233 10.8334 18.9916 10.6017L9.25884 0.868927C8.69856 0.30873 7.95366 0.000154447 7.1613 0.000154447C6.36894 0.000154447 5.62412 0.30873 5.06385 0.868927L0.868773 5.06392C0.308575 5.6242 0 6.3691 0 7.16146C0 7.95382 0.308575 8.69872 0.868773 9.25899L11.8599 20.2502L8.49187 23.6182C7.93167 24.1785 7.6231 24.9234 7.6231 25.7158C7.6231 26.5082 7.93167 27.2531 8.49187 27.8134L9.33082 28.6523L0.521517 37.4617C0.185335 37.7978 0.000158531 38.2447 0.000158531 38.7202C0.000158531 39.1957 0.185335 39.6426 0.521438 39.9786C0.85754 40.3148 1.30446 40.5 1.77994 40.5C2.25542 40.5 2.70235 40.3148 3.03845 39.9787L11.848 31.1693L12.6869 32.0081C13.2472 32.5684 13.9921 32.877 14.7845 32.877C15.5768 32.877 16.3217 32.5684 16.882 32.0082L20.2502 28.64L23.6185 32.0082C24.1788 32.5684 24.9237 32.877 25.7161 32.877C26.5084 32.877 27.2533 32.5684 27.8136 32.0082L28.6526 31.1693L37.4621 39.9786C37.7982 40.3148 38.2451 40.5 38.7206 40.5C39.1961 40.5 39.643 40.3148 39.979 39.9787C40.3152 39.6426 40.5004 39.1957 40.5004 38.7202C40.5004 38.2447 40.315 37.7978 39.9789 37.4617ZM33.6864 32.8473L34.5254 33.6863L33.6864 34.5252L32.8475 33.6863L33.6864 32.8473ZM32.0084 32.8472L31.1694 32.0082L32.0084 31.1693L32.8473 32.0082L32.0084 32.8472ZM7.653 32.0082L8.49195 31.1693L9.3309 32.0082L8.49195 32.8472L7.653 32.0082ZM7.65292 33.6863L6.81397 34.5252L5.97502 33.6863L6.81397 32.8473L7.65292 33.6863ZM2.19942 39.1398C2.08741 39.2518 1.93839 39.3135 1.77995 39.3135C1.62151 39.3135 1.47248 39.2518 1.36039 39.1397C1.24838 39.0277 1.18668 38.8787 1.18668 38.7202C1.18668 38.5618 1.24838 38.4128 1.36047 38.3007L5.13599 34.5252L5.97494 35.3642L2.19942 39.1398ZM10.1699 31.1693L9.33098 30.3303L10.17 29.4913L11.009 30.3302L10.1699 31.1693ZM16.0428 31.1692C15.7067 31.5054 15.2598 31.6905 14.7844 31.6905C14.309 31.6905 13.8621 31.5054 13.526 31.1692L9.33098 26.9743C8.63702 26.2804 8.63702 25.1512 9.33098 24.4573L32.0804 1.70788C32.4165 1.3717 32.8635 1.18652 33.3389 1.18652C33.8143 1.18652 34.2612 1.3717 34.5973 1.7078C34.5973 1.70788 38.7923 5.90287 38.7923 5.90287C39.4862 6.59675 39.4862 7.72585 38.7923 8.41973L16.0428 31.1692ZM26.9743 31.1692C26.2806 31.8631 25.1513 31.8631 24.4575 31.1692L21.0892 27.801L27.8011 21.089L31.1693 24.4573C31.8633 25.1511 31.8633 26.2803 31.1693 26.9742L26.9743 31.1692ZM30.3304 29.4913L31.1694 30.3302L30.3305 31.1692L29.4915 30.3302L30.3304 29.4913ZM39.1399 39.1398C39.0278 39.2518 38.8788 39.3135 38.7204 39.3135C38.5619 39.3135 38.4129 39.2518 38.3009 39.1397L34.5254 35.3643L35.3643 34.5253L39.1399 38.3008C39.2519 38.4128 39.3136 38.5619 39.3136 38.7203C39.3136 38.8787 39.2519 39.0277 39.1399 39.1398Z" fill="black"/>
<path d="M20.25 7.11914C22.2127 7.11914 23.8096 5.52232 23.8096 3.55957C23.8096 1.59682 22.2127 0 20.25 0C18.2872 0 16.6904 1.59682 16.6904 3.55957C16.6904 5.52232 18.2872 7.11914 20.25 7.11914ZM20.25 1.18652C21.5585 1.18652 22.623 2.25107 22.623 3.55957C22.623 4.86807 21.5585 5.93262 20.25 5.93262C18.9415 5.93262 17.877 4.86807 17.877 3.55957C17.877 2.25107 18.9415 1.18652 20.25 1.18652Z" fill="black"/>
</svg>
