<svg width="30" height="30" viewBox="0 0 30 30" fill="none" xmlns="http://www.w3.org/2000/svg">
<path d="M26.3171 0.574753H3.68362C1.9696 0.574753 0.575195 1.96938 0.575195 3.68339V26.3166C0.575195 28.0308 1.9696 29.4253 3.68362 29.4253H26.3171C28.0313 29.4253 29.4257 28.0308 29.4257 26.3166V3.68339C29.4257 1.96938 28.0313 0.574753 26.3171 0.574753ZM3.68362 2.26521H26.3171C27.0991 2.26521 27.7352 2.90134 27.7352 3.68339V7.81754H2.26566V3.68339C2.26566 2.90134 2.90178 2.26521 3.68362 2.26521ZM26.3171 27.7348H3.68362C2.90178 27.7348 2.26565 27.0987 2.26565 26.3166V9.50798H27.7352V26.3166C27.7352 27.0987 27.0991 27.7348 26.3171 27.7348Z" fill="black"/>
<path d="M8.6626 5.88648H21.3373C21.8042 5.88648 22.1825 5.50813 22.1825 5.04126C22.1825 4.57462 21.8042 4.19603 21.3373 4.19603H8.6626C8.19597 4.19603 7.81738 4.57462 7.81738 5.04126C7.81738 5.50813 8.19597 5.88648 8.6626 5.88648Z" fill="black"/>
<path d="M5.04151 17.6559H8.66302C9.12965 17.6559 9.50825 17.2775 9.50825 16.8106V13.1894C9.50825 12.7225 9.12965 12.3441 8.66302 12.3441H5.04151C4.57487 12.3441 4.19629 12.7225 4.19629 13.1894V16.8106C4.19629 17.2775 4.57466 17.6559 5.04151 17.6559ZM5.88674 14.0346H7.81778V15.9654H5.88674V14.0346Z" fill="black"/>
<path d="M24.9594 15.9654H12.2847C11.8178 15.9654 11.4395 16.344 11.4395 16.8106C11.4395 17.2775 11.8178 17.6558 12.2847 17.6558H24.9594C25.426 17.6558 25.8046 17.2775 25.8046 16.8106C25.8046 16.344 25.426 15.9654 24.9594 15.9654Z" fill="black"/>
<path d="M24.959 19.5869H5.04151C4.57488 19.5869 4.19629 19.9653 4.19629 20.4321C4.19629 20.8988 4.57488 21.2774 5.04151 21.2774H24.959C25.4257 21.2774 25.8042 20.8988 25.8042 20.4321C25.8042 19.9653 25.4257 19.5869 24.959 19.5869Z" fill="black"/>
<path d="M24.959 23.2082H5.04151C4.57488 23.2082 4.19629 23.5865 4.19629 24.0534C4.19629 24.5202 4.57488 24.8986 5.04151 24.8986H24.959C25.4257 24.8986 25.8042 24.5202 25.8042 24.0534C25.8042 23.5865 25.4257 23.2082 24.959 23.2082Z" fill="black"/>
<path d="M24.9594 12.3441H12.2847C11.8178 12.3441 11.4395 12.7225 11.4395 13.1893C11.4395 13.6562 11.8178 14.0346 12.2847 14.0346H24.9594C25.426 14.0346 25.8046 13.6562 25.8046 13.1893C25.8046 12.7225 25.426 12.3441 24.9594 12.3441Z" fill="black"/>
</svg>
