<svg width="34" height="34" viewBox="0 0 34 34" fill="none" xmlns="http://www.w3.org/2000/svg">
<path d="M32.173 32.7661H11.1019C10.5897 32.7661 10.1746 32.3509 10.1746 31.8387V18.2906C10.1746 17.7784 10.5897 17.3633 11.1019 17.3633H32.1729C32.6851 17.3633 33.1002 17.7784 33.1002 18.2906V31.8387C33.1003 32.3508 32.6851 32.7661 32.173 32.7661Z" fill="#F8E7C7"/>
<path d="M32.1728 17.3633H30.22C30.7321 17.3633 31.1473 17.7784 31.1473 18.2906V31.8387C31.1473 32.3509 30.7321 32.7661 30.22 32.7661H32.1728C32.685 32.7661 33.1002 32.3509 33.1002 31.8387V18.2906C33.1002 17.7784 32.685 17.3633 32.1728 17.3633Z" fill="#F4DAA7"/>
<path d="M27.1843 17.3633H29.1377V32.6968H27.1843V17.3633Z" fill="#F26E91"/>
<path d="M22.9507 28.1556H19.3434C19.0086 28.1556 18.7371 27.8842 18.7371 27.5493V26.1287C18.7371 25.7938 19.0085 25.5223 19.3434 25.5223H22.9507C23.2856 25.5223 23.5571 25.7937 23.5571 26.1287V27.5493C23.5571 27.8841 23.2857 28.1556 22.9507 28.1556Z" fill="white"/>
<path d="M15.4992 30.5134H2.22587C1.60494 30.5134 1.10156 30.01 1.10156 29.3891V12.3395C1.10156 11.7186 1.60494 11.2152 2.22587 11.2152H15.4992C16.1202 11.2152 16.6235 11.7186 16.6235 12.3395V29.389C16.6235 30.01 16.1202 30.5134 15.4992 30.5134Z" fill="#FFC1C7"/>
<path d="M15.4992 11.2152H13.5464C14.1673 11.2152 14.6707 11.7186 14.6707 12.3395V29.389C14.6707 30.0099 14.1673 30.5133 13.5464 30.5133H15.4992C16.1202 30.5133 16.6236 30.0099 16.6236 29.389V12.3395C16.6236 11.7186 16.1202 11.2152 15.4992 11.2152Z" fill="#FFB3BA"/>
<path d="M11.0479 2.44743H7.26678C7.1166 2.44743 6.99487 2.32571 6.99487 2.17553V0.760119C6.99487 0.609947 7.1166 0.48822 7.26678 0.48822H11.0479C11.1981 0.48822 11.3198 0.609947 11.3198 0.760119V2.17553C11.3199 2.32571 11.1981 2.44743 11.0479 2.44743Z" fill="#C8C3CA"/>
<path d="M32.173 16.8751H25.258V15.6565C25.258 15.2006 24.8871 14.8296 24.4312 14.8296H18.8439C18.3879 14.8296 18.017 15.2006 18.017 15.6565V16.8751H17.1117V12.3395C17.1117 11.4504 16.3884 10.727 15.4993 10.727H13.5282V1.94613C13.5282 1.4132 13.0946 0.979607 12.5616 0.979607H11.8082V0.760108C11.8082 0.34103 11.4671 0 11.048 0H7.26685C6.84777 0 6.50674 0.34103 6.50674 0.760108V0.979607H5.75333C5.22041 0.979607 4.78681 1.4132 4.78681 1.94613V10.727H2.22587C1.33674 10.727 0.613281 11.4504 0.613281 12.3395V17.3578C0.613281 17.6274 0.831803 17.846 1.10149 17.846C1.37118 17.846 1.5897 17.6274 1.5897 17.3578V12.3395C1.5897 11.9888 1.87507 11.7034 2.22587 11.7034H15.4992C15.8499 11.7034 16.1353 11.9888 16.1353 12.3395V29.389C16.1353 29.7398 15.8499 30.0251 15.4992 30.0251H2.22587C1.87507 30.0251 1.5897 29.7398 1.5897 29.389V19.3106C1.5897 19.041 1.37118 18.8224 1.10149 18.8224C0.831804 18.8224 0.613281 19.041 0.613281 19.3106V29.389C0.613281 30.2781 1.33668 31.0015 2.22587 31.0015H3.21856V32.7644C3.21856 33.034 3.43708 33.2526 3.70677 33.2526C3.97645 33.2526 4.19497 33.034 4.19497 32.7644V31.0015H9.68647V31.8387C9.68647 32.6192 10.3215 33.2542 11.102 33.2542H32.173C32.9535 33.2542 33.5885 32.6192 33.5885 31.8387V18.2906C33.5885 17.5101 32.9536 16.8751 32.173 16.8751ZM7.48316 0.976417H10.8317V1.95921H7.48316V0.976417ZM5.76323 1.95602H6.50674V2.17552C6.50674 2.59467 6.84771 2.93563 7.26685 2.93563H11.048C11.4671 2.93563 11.8082 2.59467 11.8082 2.17552V1.95602H12.5517V10.727H5.76323L5.76323 1.95602ZM28.6495 17.8515V32.2087H27.6726V17.8515H28.6495ZM17.1117 29.389V17.8515H21.6374C21.9071 17.8515 22.1256 17.6329 22.1256 17.3633C22.1256 17.0937 21.9071 16.8751 21.6374 16.8751H18.9934V15.806H24.2816V16.8751H23.5903C23.3206 16.8751 23.1021 17.0937 23.1021 17.3633C23.1021 17.6329 23.3206 17.8515 23.5903 17.8515H26.6962V32.2778H14.5065V31.0015H15.4992C16.3883 31.0016 17.1117 30.2782 17.1117 29.389ZM10.6629 31.8387V31.0016H13.5301V32.2779H11.102C10.8598 32.2779 10.6629 32.0808 10.6629 31.8387ZM32.6121 31.8387C32.6121 32.0809 32.4152 32.2779 32.173 32.2779H29.6259V17.8515H32.173C32.4152 17.8515 32.6121 18.0485 32.6121 18.2906V31.8387Z" fill="black"/>
<path d="M19.3435 28.6439H22.9508C23.5544 28.6439 24.0454 28.1528 24.0454 27.5493V26.1287C24.0454 25.5251 23.5544 25.0341 22.9508 25.0341H19.3435C18.74 25.0341 18.249 25.5251 18.249 26.1287V27.5493C18.249 28.1528 18.74 28.6439 19.3435 28.6439ZM19.2254 26.1287C19.2254 26.0635 19.2784 26.0105 19.3435 26.0105H22.9508C23.016 26.0105 23.069 26.0635 23.069 26.1287V27.5493C23.069 27.6145 23.016 27.6674 22.9508 27.6674H19.3435C19.2784 27.6674 19.2254 27.6145 19.2254 27.5493V26.1287Z" fill="black"/>
<path d="M4.7545 27.5067V14.2218C4.7545 13.9522 4.53597 13.7336 4.26629 13.7336C3.9966 13.7336 3.77808 13.9522 3.77808 14.2218V27.5068C3.77808 27.7764 3.9966 27.995 4.26629 27.995C4.53597 27.9949 4.7545 27.7763 4.7545 27.5067Z" fill="black"/>
<path d="M7.8187 27.5067V14.2218C7.8187 13.9522 7.60017 13.7336 7.33049 13.7336C7.06081 13.7336 6.84229 13.9522 6.84229 14.2218V27.5068C6.84229 27.7764 7.06081 27.995 7.33049 27.995C7.60011 27.9949 7.8187 27.7763 7.8187 27.5067Z" fill="black"/>
<path d="M10.8827 27.5067V14.2218C10.8827 13.9522 10.6641 13.7336 10.3945 13.7336C10.1248 13.7336 9.90625 13.9522 9.90625 14.2218V27.5068C9.90625 27.7764 10.1248 27.995 10.3945 27.995C10.6641 27.995 10.8827 27.7763 10.8827 27.5067Z" fill="black"/>
<path d="M13.9469 27.5067V14.2218C13.9469 13.9522 13.7284 13.7336 13.4587 13.7336C13.189 13.7336 12.9705 13.9522 12.9705 14.2218V27.5068C12.9705 27.7764 13.189 27.995 13.4587 27.995C13.7284 27.9949 13.9469 27.7763 13.9469 27.5067Z" fill="black"/>
</svg>
