<svg width="24" height="34" viewBox="0 0 24 34" fill="none" xmlns="http://www.w3.org/2000/svg">
<path d="M19.4992 9.23331C19.2719 8.85688 18.8212 8.67798 18.3975 8.79614C17.9736 8.9143 17.6806 9.30017 17.6806 9.74015C17.6806 10.9363 16.7075 11.9092 15.5116 11.9092C14.3155 11.9092 13.3426 10.9363 13.3426 9.74015V1.52682C13.3426 1.13049 13.1038 0.773194 12.7375 0.621348C12.3713 0.469755 11.9497 0.553718 11.6695 0.833935C11.5598 0.943929 8.94619 3.5723 6.29868 7.54382C4.73758 9.8856 3.49166 12.2085 2.59588 14.4479C1.46123 17.2848 0.885742 20.001 0.885742 22.5204C0.885742 28.8488 6.03428 33.9973 12.3624 33.9973C18.6907 33.9973 23.8393 28.8488 23.8393 22.5204C23.8393 18.4698 22.379 13.9993 19.4992 9.23331ZM12.3624 32.0373C7.11511 32.0373 2.84576 27.768 2.84576 22.5204C2.84576 17.355 5.59867 12.1338 7.90829 8.66295C9.16009 6.78182 10.4216 5.19648 11.3824 4.06898V9.74018C11.3824 12.0169 13.2347 13.8692 15.5114 13.8692C16.9033 13.8692 18.1367 13.177 18.885 12.1187C20.873 15.8623 21.8793 19.3541 21.8793 22.5204C21.8793 27.768 17.6102 32.0373 12.3624 32.0373Z" fill="black"/>
<path d="M17.9218 17.087H13.7232C13.1819 17.087 12.7432 17.5257 12.7432 18.0668C12.7429 18.6081 13.1819 19.047 13.7229 19.047H15.5561L11.3691 23.2337L9.0932 20.9577C8.71065 20.5752 8.08997 20.5752 7.70744 20.9577L5.4805 23.1844C5.09769 23.5672 5.09769 24.1877 5.48025 24.5705C5.86305 24.9533 6.48346 24.953 6.86627 24.5705L8.40032 23.0367L10.676 25.3126C10.8597 25.4963 11.1091 25.5997 11.3691 25.5997C11.6289 25.5997 11.8783 25.4963 12.062 25.3126L16.9418 20.433V22.2657C16.9418 22.8067 17.3805 23.2457 17.9218 23.2457C18.4631 23.2457 18.9018 22.8067 18.9018 22.2657V18.067C18.9018 17.5257 18.4631 17.087 17.9218 17.087Z" fill="black"/>
</svg>
