<svg width="20" height="18" viewBox="0 0 20 18" fill="none" xmlns="http://www.w3.org/2000/svg">
<path d="M17.5124 3.10526C17.41 1.78359 16.3027 0.739288 14.9552 0.739288H2.95057C1.53578 0.739288 0.384766 1.8903 0.384766 3.30509V15.1765C0.384766 16.5913 1.53578 17.7423 2.95057 17.7423H16.8189C18.2337 17.7423 19.3847 16.5913 19.3847 15.1765V5.57503C19.3847 4.4006 18.5912 3.40866 17.5124 3.10526ZM2.95057 1.93791H14.9553C15.6075 1.93791 16.1542 2.39717 16.2898 3.00926H2.95057C2.44824 3.00926 1.97954 3.15493 1.58339 3.40544V3.30509C1.58339 2.55123 2.19671 1.93791 2.95057 1.93791ZM16.8189 16.5437H2.95057C2.19671 16.5437 1.58339 15.9304 1.58339 15.1765V5.57503C1.58339 4.82116 2.19671 4.20784 2.95057 4.20784H16.8189C17.5728 4.20784 18.1861 4.82116 18.1861 5.57503V7.66655H14.3645C12.8501 7.66655 11.6181 8.89862 11.6181 10.413C11.6181 11.9274 12.8502 13.1595 14.3645 13.1595H18.1861V15.1765C18.1861 15.9304 17.5728 16.5437 16.8189 16.5437ZM18.1861 11.9609H14.3645C13.5111 11.9609 12.8167 11.2665 12.8167 10.413C12.8167 9.55952 13.5111 8.86518 14.3645 8.86518H18.1861V11.9609Z" fill="#111111"/>
<ellipse cx="14.5869" cy="10.4585" rx="0.623959" ry="0.623959" fill="#111111"/>
</svg>
